<svg width="56" height="58" viewBox="0 0 56 58" fill="none" xmlns="http://www.w3.org/2000/svg">
<path d="M55.5769 56.59V19.9224C55.5769 19.1452 54.944 18.5123 54.1668 18.5123H47.4137V0H8.1606V18.5123H1.41004C0.632844 18.5123 0 19.1452 0 19.9224V56.5906C0 57.3672 0.632844 58 1.41004 58H54.1675C54.944 58 55.5769 57.3672 55.5769 56.59ZM47.4137 20.4585H52.0073L47.4137 24.2653V20.4585ZM10.1068 1.94622H45.4668V25.6405H45.753L45.7427 25.6495L30.4887 38.2903L28.3672 36.7578L25.5948 38.7195L10.3569 26.0929L10.1075 25.886V1.94622H10.1068ZM8.1606 20.4585V24.273L3.55733 20.4585H8.1606ZM1.94622 21.652L23.9488 39.884L1.94622 55.4544V21.652ZM4.46987 56.0538L28.3549 39.1506L51.7521 56.0538H4.46987ZM53.6307 55.0091L32.1185 39.4677L53.6307 21.6417V55.0091Z" fill="#C8A781"/>
<path d="M17.1029 26.0085V29.0097H24.032H31.5436H38.4733V25.7404V18.4865H39.8511V12.0298H34.3824C34.5532 11.9177 34.7104 11.8011 34.8354 11.676C36.4433 10.0682 36.4433 7.45236 34.8354 5.84447C33.2282 4.23723 30.6117 4.23723 29.0039 5.84447C28.3833 6.46507 27.9231 7.70434 27.5932 8.97003C27.2999 7.94472 26.9088 6.98772 26.3919 6.47087C24.9078 4.98607 22.4911 4.98607 21.0057 6.47087C19.5209 7.95567 19.5209 10.3717 21.0057 11.8571C21.0656 11.9171 21.1358 11.9731 21.2067 12.0298H15.7231V18.4865H17.101V26.0085H17.1029ZM24.0326 27.0634H19.0498V18.4865H24.0326V27.0634ZM36.5271 27.0634H31.5443V18.4865H36.5271V27.0634ZM37.9056 13.9767V16.5403H31.5443V13.9767H37.9056ZM30.3817 7.221C30.8064 6.79632 31.3632 6.58429 31.9213 6.58429C32.4787 6.58429 33.0361 6.79632 33.4602 7.221C34.3089 8.06974 34.3089 9.45078 33.4602 10.2995C32.9595 10.8002 30.9713 11.3351 29.0245 11.6561C29.3448 9.71049 29.8797 7.72303 30.3817 7.221ZM29.598 13.9767V27.0634H25.9788V13.9767H29.598ZM22.3835 7.84805C22.7463 7.48523 23.2232 7.30349 23.7001 7.30349C24.177 7.30349 24.6539 7.48523 25.0167 7.84805C25.4433 8.27467 25.9021 9.96183 26.1889 11.6528C24.4979 11.3661 22.8107 10.9079 22.3835 10.4812C21.6578 9.75496 21.6578 8.57369 22.3835 7.84805ZM17.6713 13.9767H24.032V16.5403H17.6713V13.9767Z" fill="#C8A781"/>
</svg>
