<svg width="55" height="44" viewBox="0 0 55 44" fill="none" xmlns="http://www.w3.org/2000/svg">
<path d="M24.88 18.4902H18.25C17.7 18.4902 17.25 18.9402 17.25 19.4902C17.25 20.0402 17.7 20.4902 18.25 20.4902H24.88C25.43 20.4902 25.88 20.0402 25.88 19.4902C25.88 18.9402 25.43 18.4902 24.88 18.4902Z" fill="#C8A781"/>
<path d="M36.74 31.4302H30.11C29.56 31.4302 29.11 31.8802 29.11 32.4302C29.11 32.9802 29.56 33.4302 30.11 33.4302H36.74C37.29 33.4302 37.74 32.9802 37.74 32.4302C37.74 31.8802 37.3 31.4302 36.74 31.4302Z" fill="#C8A781"/>
<path d="M24.88 24.96H18.25C17.7 24.96 17.25 25.41 17.25 25.96C17.25 26.51 17.7 26.96 18.25 26.96H24.88C25.43 26.96 25.88 26.51 25.88 25.96C25.88 25.41 25.43 24.96 24.88 24.96Z" fill="#C8A781"/>
<path d="M36.74 12.02H30.11C29.56 12.02 29.11 12.47 29.11 13.02C29.11 13.57 29.56 14.02 30.11 14.02H36.74C37.29 14.02 37.74 13.57 37.74 13.02C37.74 12.47 37.3 12.02 36.74 12.02Z" fill="#C8A781"/>
<path d="M36.74 24.96H30.11C29.56 24.96 29.11 25.41 29.11 25.96C29.11 26.51 29.56 26.96 30.11 26.96H36.74C37.29 26.96 37.74 26.51 37.74 25.96C37.74 25.41 37.3 24.96 36.74 24.96Z" fill="#C8A781"/>
<path d="M36.74 18.4902H30.11C29.56 18.4902 29.11 18.9402 29.11 19.4902C29.11 20.0402 29.56 20.4902 30.11 20.4902H36.74C37.29 20.4902 37.74 20.0402 37.74 19.4902C37.74 18.9402 37.3 18.4902 36.74 18.4902Z" fill="#C8A781"/>
<path d="M13.02 18.4902H6.39001C5.84001 18.4902 5.39001 18.9402 5.39001 19.4902C5.39001 20.0402 5.84001 20.4902 6.39001 20.4902H13.02C13.57 20.4902 14.02 20.0402 14.02 19.4902C14.02 18.9402 13.57 18.4902 13.02 18.4902Z" fill="#C8A781"/>
<path d="M13.02 31.4302H6.39001C5.84001 31.4302 5.39001 31.8802 5.39001 32.4302C5.39001 32.9802 5.84001 33.4302 6.39001 33.4302H13.02C13.57 33.4302 14.02 32.9802 14.02 32.4302C14.02 31.8802 13.57 31.4302 13.02 31.4302Z" fill="#C8A781"/>
<path d="M13.02 24.96H6.39001C5.84001 24.96 5.39001 25.41 5.39001 25.96C5.39001 26.51 5.84001 26.96 6.39001 26.96H13.02C13.57 26.96 14.02 26.51 14.02 25.96C14.02 25.41 13.57 24.96 13.02 24.96Z" fill="#C8A781"/>
<path d="M24.88 31.4302H18.25C17.7 31.4302 17.25 31.8802 17.25 32.4302C17.25 32.9802 17.7 33.4302 18.25 33.4302H24.88C25.43 33.4302 25.88 32.9802 25.88 32.4302C25.88 31.8802 25.43 31.4302 24.88 31.4302Z" fill="#C8A781"/>
<path d="M24.88 12.02H18.25C17.7 12.02 17.25 12.47 17.25 13.02C17.25 13.57 17.7 14.02 18.25 14.02H24.88C25.43 14.02 25.88 13.57 25.88 13.02C25.88 12.47 25.43 12.02 24.88 12.02Z" fill="#C8A781"/>
<path d="M48.61 24.96H41.98C41.43 24.96 40.98 25.41 40.98 25.96C40.98 26.51 41.43 26.96 41.98 26.96H48.61C49.16 26.96 49.61 26.51 49.61 25.96C49.61 25.41 49.16 24.96 48.61 24.96Z" fill="#C8A781"/>
<path d="M54 3.39H47.91V1C47.91 0.45 47.46 0 46.91 0H42.54C41.99 0 41.54 0.45 41.54 1V3.39H13.44V1C13.44 0.45 12.99 0 12.44 0H8.07C7.52 0 7.07 0.45 7.07 1V3.39H1C0.45 3.39 0 3.84 0 4.39V42.14C0 42.69 0.45 43.14 1 43.14H54C54.55 43.14 55 42.69 55 42.14V4.39C55 3.84 54.55 3.39 54 3.39ZM43.55 4.39V2H45.92V4.39V6.93H43.55V4.39ZM9.09 4.39V2H11.46V4.39V6.93H9.09V4.39ZM53 41.14H2V5.39H7.09V7.93C7.09 8.48 7.54 8.93 8.09 8.93H12.46C13.01 8.93 13.46 8.48 13.46 7.93V5.39H41.56V7.93C41.56 8.48 42.01 8.93 42.56 8.93H46.93C47.48 8.93 47.93 8.48 47.93 7.93V5.39H53.02V41.14H53Z" fill="#C8A781"/>
<path d="M48.61 18.4902H41.98C41.43 18.4902 40.98 18.9402 40.98 19.4902C40.98 20.0402 41.43 20.4902 41.98 20.4902H48.61C49.16 20.4902 49.61 20.0402 49.61 19.4902C49.61 18.9402 49.16 18.4902 48.61 18.4902Z" fill="#C8A781"/>
<path d="M40.98 13.02C40.98 13.57 41.43 14.02 41.98 14.02H48.61C49.16 14.02 49.61 13.57 49.61 13.02C49.61 12.47 49.16 12.02 48.61 12.02H41.98C41.43 12.02 40.98 12.47 40.98 13.02Z" fill="#C8A781"/>
</svg>
