<svg width="62" height="62" viewBox="0 0 62 62" fill="none" xmlns="http://www.w3.org/2000/svg">
<path fill-rule="evenodd" clip-rule="evenodd" d="M43.1856 22.0886C43.0006 22.0887 42.8232 22.1622 42.6924 22.293C42.5616 22.4238 42.4881 22.6012 42.488 22.7862V28.6002C42.4881 28.7852 42.5616 28.9626 42.6924 29.0934C42.8232 29.2242 43.0006 29.2977 43.1856 29.2978H49.0019C49.1869 29.2977 49.3643 29.2242 49.4952 29.0934C49.626 28.9626 49.6995 28.7852 49.6995 28.6002V22.7862C49.6995 22.6012 49.626 22.4238 49.4952 22.293C49.3644 22.1622 49.1869 22.0887 49.0019 22.0886H43.1856ZM43.8832 23.4838H48.3044V27.9026H43.8832V23.4838Z" fill="#C8A781" stroke="#C8A781" stroke-width="0.5"/>
<path fill-rule="evenodd" clip-rule="evenodd" d="M49.0197 1.00091C48.9106 1.00719 48.803 1.03893 48.7084 1.09361L15.5417 20.2429V14.3671C15.5417 14.1843 15.4663 14.0027 15.337 13.8736C15.2077 13.7444 15.0261 13.6693 14.8433 13.6695H5.29572C5.1131 13.6695 4.93162 13.7447 4.80249 13.8738C4.67336 14.003 4.59817 14.1845 4.59813 14.3671V26.5613L1.35277 28.4347C1.19035 28.5238 1.06622 28.6801 1.01631 28.8585C0.966405 29.0369 0.991375 29.235 1.08399 29.3954C1.17661 29.5558 1.33567 29.6765 1.5151 29.7224C1.69454 29.7685 1.89202 29.7391 2.05035 29.6429L4.59813 28.1721V60.302C4.59631 60.7829 4.94536 61.008 5.29572 60.9996H56.602C57.0937 61.0066 57.3041 60.6555 57.2996 60.302V17.3591L59.7021 21.5175C59.7935 21.6757 59.9495 21.7953 60.126 21.8424C60.3024 21.8896 60.4973 21.8639 60.6554 21.7725C60.8136 21.6811 60.9331 21.5251 60.9803 21.3486C61.0275 21.1721 61.0017 20.9773 60.9104 20.8192L49.6609 1.34855C49.5329 1.12706 49.2752 0.987319 49.0197 1.00091ZM48.8018 2.65022L55.9044 14.9442V59.6044H50.4952V43.519C50.4954 43.3362 50.4203 43.1545 50.2911 43.0252C50.162 42.896 49.9804 42.8206 49.7976 42.8206H41.1554C40.9727 42.8206 40.7911 42.896 40.6619 43.0252C40.5328 43.1545 40.4577 43.3362 40.4578 43.519V59.6044H27.9978V44.5881C27.9978 44.4055 27.9226 44.2241 27.7935 44.0949C27.6643 43.9658 27.4828 43.8906 27.3002 43.8906H10.5087C10.3261 43.8906 10.1446 43.9658 10.0155 44.0949C9.88634 44.2241 9.81115 44.4055 9.81111 44.5881V59.6044H5.99331V27.3663L30.2513 13.3612V31.9064H25.8734C25.6883 31.8994 25.5028 31.9762 25.3705 32.1054C25.2382 32.235 25.1608 32.4188 25.1608 32.604C25.1608 32.7891 25.2382 32.9731 25.3705 33.1026C25.5028 33.232 25.6883 33.3055 25.8734 33.3016H36.0251C36.2102 33.3085 36.3957 33.2318 36.528 33.1026C36.6603 32.9731 36.7376 32.7891 36.7376 32.604C36.7376 32.4188 36.6603 32.235 36.528 32.1054C36.3957 31.9759 36.2102 31.9025 36.0251 31.9064H31.6464V12.5555L48.8018 2.65022ZM5.99331 15.0647H14.1457V21.0486L5.99331 25.7556V15.0647ZM41.853 44.2165H49.1V59.6044H41.853V44.2165ZM11.2063 45.2857H26.6019V49.1282H11.2063V45.2857ZM11.2063 50.5234H26.6019V54.3667H11.2063V50.5234ZM11.2063 55.7619H26.6019V59.6044H11.2063V55.7619Z" fill="#C8A781" stroke="#C8A781" stroke-width="0.5"/>
</svg>
