<svg width="60" height="60" viewBox="0 0 60 60" fill="none" xmlns="http://www.w3.org/2000/svg">
<path d="M30 0C24.0666 0 18.2664 1.75947 13.3329 5.05591C8.39943 8.35235 4.55426 13.0377 2.28363 18.5195C0.0129988 24.0013 -0.581102 30.0333 0.576455 35.8527C1.73401 41.6721 4.59123 47.0176 8.78681 51.2132C12.9824 55.4088 18.3279 58.266 24.1473 59.4236C29.9667 60.5811 35.9987 59.987 41.4805 57.7164C46.9623 55.4458 51.6477 51.6006 54.9441 46.6671C58.2405 41.7336 60 35.9334 60 30C59.991 22.0463 56.8274 14.4209 51.2033 8.79674C45.5791 3.17259 37.9537 0.00899894 30 0ZM30 58C24.4621 58 19.0486 56.3578 14.444 53.2812C9.83947 50.2045 6.25064 45.8315 4.13139 40.7151C2.01213 35.5988 1.45764 29.9689 2.53803 24.5375C3.61841 19.106 6.28515 14.1169 10.201 10.201C14.1169 6.28514 19.106 3.6184 24.5375 2.53801C29.969 1.45763 35.5988 2.01212 40.7152 4.13137C45.8315 6.25063 50.2045 9.83946 53.2812 14.444C56.3578 19.0486 58 24.4621 58 30C57.9915 37.4235 55.0388 44.5405 49.7896 49.7896C44.5405 55.0388 37.4235 57.9915 30 58Z" fill="#C8A781"/>
<path d="M36.6068 11.9033V11H24.0028V11.9033C24.0028 15.2493 19.4708 18.2267 15.9003 18.2267H15V37.1967C15 43.5164 28.3296 51.5344 29.8493 52.4305L30.3048 52.6943L30.7603 52.4305C32.28 51.5344 45.6096 43.5164 45.6096 37.1967V18.2267H44.7093C41.1388 18.2267 36.6068 15.2475 36.6068 11.9033ZM25.7296 12.8067H34.8782C35.4886 16.5934 39.8406 19.5817 43.8072 19.9846V25.4533H16.7988V19.9846C20.769 19.5817 25.1192 16.5934 25.7296 12.8067ZM16.8006 37.1967V27.26H29.4045V50.0367C24.9373 47.211 16.8006 41.2292 16.8006 37.1967ZM31.2051 50.0367V27.26H43.809V37.1967C43.809 41.2256 35.6705 47.211 31.2051 50.0367Z" fill="#C8A781"/>
<path d="M24 20H22V22H24V20Z" fill="#C8A781"/>
<path d="M32 20H30V22H32V20Z" fill="#C8A781"/>
<path d="M39 20H37V22H39V20Z" fill="#C8A781"/>
</svg>
