<svg width="23" height="23" viewBox="0 0 23 23" fill="none" xmlns="http://www.w3.org/2000/svg">
<path d="M22 20.6521L16.6669 15.3189C19.4461 11.8649 19.2346 6.78391 16.03 3.57876C14.3665 1.91576 12.1558 1 9.804 1C7.45266 1 5.24171 1.91576 3.57897 3.57852C1.91551 5.24176 1 7.4525 1 9.80411C1 12.1557 1.91575 14.3669 3.57897 16.0297C5.24195 17.6927 7.45266 18.6084 9.804 18.6084C11.8348 18.6084 13.7597 17.9241 15.3188 16.6668L20.6519 22L22 20.6521ZM9.804 16.7019C7.96178 16.7019 6.22968 15.9842 4.92709 14.6813C3.62402 13.3785 2.90658 11.6466 2.90658 9.80411C2.90658 7.96162 3.62402 6.22974 4.92709 4.92689C6.22968 3.62405 7.96178 2.9066 9.804 2.9066C11.6465 2.9066 13.3788 3.62405 14.6819 4.92689C17.3707 7.61625 17.3707 11.9922 14.6819 14.6813C13.3788 15.9844 11.6465 16.7019 9.804 16.7019Z" fill="white" stroke="white" stroke-width="0.1"/>
</svg>
