<svg width="39" height="40" viewBox="0 0 39 40" fill="none" xmlns="http://www.w3.org/2000/svg">
<path d="M33.3215 8.29944H28.5876V3.89831C28.5876 2.29887 27.2887 1 25.6893 1H13.6667C12.0672 1 10.7684 2.29887 10.7684 3.89831V8.29944H6.03446C3.25424 8.29944 1 10.6181 1 13.3983V24.3475C1 27.1277 3.25424 29.4463 6.03446 29.4463H8.62147V36.1017C8.62147 37.7011 9.92034 39 11.5198 39H27.8362C29.4356 39 30.7345 37.7011 30.7345 36.1017V29.4463H33.3215C36.1017 29.4463 38.3559 27.1277 38.3559 24.3475V13.3983C38.3559 10.6181 36.1017 8.29944 33.3215 8.29944ZM12.2712 3.89831C12.2712 3.12542 12.8938 2.50282 13.6667 2.50282H25.6893C26.4621 2.50282 27.0847 3.12542 27.0847 3.89831V8.29944H12.2712V3.89831ZM29.2316 36.1017C29.2316 36.8746 28.609 37.4972 27.8362 37.4972H11.5198C10.7469 37.4972 10.1243 36.8746 10.1243 36.1017V22.0395H29.2316V36.1017ZM33.3215 27.9435H30.7345V21.2452C30.7345 20.8266 30.4017 20.5367 29.9831 20.5367H9.37288C8.95424 20.5367 8.62147 20.8373 8.62147 21.2452V27.9435H6.03446C4.08079 27.9435 2.50282 26.3011 2.50282 24.3475V13.3983C2.50282 11.4446 4.08079 9.80226 6.03446 9.80226H33.3107C35.2644 9.80226 36.8424 11.4446 36.8424 13.3983V24.3475H36.8531C36.8531 26.3011 35.2751 27.9435 33.3215 27.9435Z" fill="#BB976E" stroke="#BB976E" stroke-width="0.5"/>
</svg>
