<svg width="22" height="22" viewBox="0 0 22 22" fill="none" xmlns="http://www.w3.org/2000/svg">
<path d="M2.15367 15.0426C3.45195 16.9206 5.07942 18.5481 6.95738 19.8464L8.23097 20.7262C9.60922 21.6812 11.2791 22.1217 12.949 21.9711C14.619 21.8204 16.183 21.088 17.368 19.9018L17.9335 19.3337C18.2951 18.9716 18.4982 18.4808 18.4982 17.969C18.4982 17.4572 18.2951 16.9664 17.9335 16.6042L15.6823 14.3556C15.3201 13.9941 14.8293 13.791 14.3175 13.791C13.8057 13.791 13.3149 13.9941 12.9528 14.3556L11.5682 15.7402C11.4989 15.8072 11.4091 15.8489 11.3132 15.8585C11.2172 15.8681 11.1209 15.845 11.0397 15.7931C9.1244 14.5217 7.48151 12.8815 6.20696 10.9682C6.15499 10.887 6.13193 10.7907 6.14152 10.6948C6.15111 10.5989 6.19279 10.509 6.25981 10.4398L7.64438 9.05519C8.00597 8.69305 8.20906 8.2022 8.20906 7.69044C8.20906 7.17868 8.00597 6.68784 7.64438 6.32569L5.39314 4.07445C5.03099 3.71286 4.54015 3.50977 4.02839 3.50977C3.51663 3.50977 3.02578 3.71286 2.66364 4.07445L2.09819 4.64255C0.911984 5.82761 0.179632 7.39162 0.028959 9.06158C-0.121714 10.7315 0.318862 12.4014 1.27379 13.7796L2.15367 15.0426ZM3.21059 5.75496L3.78397 5.18686C3.81588 5.1549 3.85377 5.12955 3.89548 5.11225C3.93719 5.09496 3.98191 5.08605 4.02707 5.08605C4.07222 5.08605 4.11694 5.09496 4.15865 5.11225C4.20036 5.12955 4.23825 5.1549 4.27016 5.18686L6.5214 7.4381C6.5853 7.50288 6.62112 7.59021 6.62112 7.68119C6.62112 7.77218 6.5853 7.85951 6.5214 7.92429L5.13947 9.30885C4.80916 9.63659 4.60239 10.0685 4.55423 10.5313C4.50607 10.9941 4.61949 11.4594 4.87524 11.8481C6.26707 13.9357 8.06089 15.725 10.1519 17.1116C10.5406 17.3661 11.0051 17.4789 11.4672 17.4307C11.9293 17.3826 12.3607 17.1766 12.6885 16.8473L14.0731 15.4628C14.105 15.4308 14.1429 15.4055 14.1846 15.3882C14.2263 15.3709 14.271 15.362 14.3162 15.362C14.3613 15.362 14.4061 15.3709 14.4478 15.3882C14.4895 15.4055 14.5274 15.4308 14.5593 15.4628L16.8132 17.7272C16.8451 17.7591 16.8705 17.797 16.8878 17.8387C16.9051 17.8804 16.914 17.9252 16.914 17.9703C16.914 18.0155 16.9051 18.0602 16.8878 18.1019C16.8705 18.1436 16.8451 18.1815 16.8132 18.2134L16.2477 18.7815C15.325 19.7046 14.1075 20.2745 12.8076 20.3918C11.5076 20.5092 10.2078 20.1665 9.13463 19.4236L7.86104 18.5437C6.14001 17.3541 4.64859 15.8627 3.45897 14.1416L2.57908 12.868C1.83532 11.7954 1.4919 10.4956 1.60877 9.19553C1.72564 7.89548 2.29538 6.67777 3.21852 5.75496H3.21059Z" fill="#174948"/>
<path d="M9.91159 0C9.70135 4.43036e-09 9.49973 0.0835155 9.35107 0.232174C9.20241 0.380832 9.1189 0.582456 9.1189 0.792691C9.1189 1.00293 9.20241 1.20455 9.35107 1.35321C9.49973 1.50187 9.70135 1.58538 9.91159 1.58538C12.6961 1.58888 15.3656 2.69658 17.3346 4.66554C19.3035 6.63451 20.4112 9.304 20.4147 12.0885C20.4147 12.2988 20.4983 12.5004 20.6469 12.649C20.7956 12.7977 20.9972 12.8812 21.2074 12.8812C21.4177 12.8812 21.6193 12.7977 21.7679 12.649C21.9166 12.5004 22.0001 12.2988 22.0001 12.0885C21.9966 8.88353 20.7219 5.81079 18.4556 3.54451C16.1893 1.27823 13.1166 0.00349701 9.91159 0Z" fill="#174948"/>
<path d="M16.7393 12.0884C16.7393 12.2986 16.8228 12.5002 16.9715 12.6489C17.1201 12.7976 17.3218 12.8811 17.532 12.8811C17.7422 12.8811 17.9438 12.7976 18.0925 12.6489C18.2412 12.5002 18.3247 12.2986 18.3247 12.0884C18.3219 9.85795 17.4346 7.71967 15.8575 6.14252C14.2803 4.56536 12.142 3.67809 9.91159 3.67529C9.70135 3.67529 9.49973 3.75881 9.35107 3.90747C9.20241 4.05612 9.1189 4.25775 9.1189 4.46798C9.1189 4.67822 9.20241 4.87984 9.35107 5.0285C9.49973 5.17716 9.70135 5.26067 9.91159 5.26067C11.7218 5.26277 13.4572 5.98279 14.7372 7.26278C16.0172 8.54277 16.7372 10.2782 16.7393 12.0884Z" fill="#174948"/>
<path d="M9.1189 8.4924C9.1189 8.70263 9.20241 8.90426 9.35107 9.05291C9.49973 9.20157 9.70135 9.28509 9.91159 9.28509C10.6547 9.28648 11.367 9.5823 11.8924 10.1078C12.4179 10.6332 12.7137 11.3455 12.7151 12.0886C12.7151 12.2988 12.7986 12.5004 12.9472 12.6491C13.0959 12.7977 13.2975 12.8813 13.5078 12.8813C13.718 12.8813 13.9196 12.7977 14.0683 12.6491C14.2169 12.5004 14.3005 12.2988 14.3005 12.0886C14.2991 10.925 13.8362 9.80949 13.0134 8.98672C12.1907 8.16395 11.0752 7.70111 9.91159 7.69971C9.70135 7.69971 9.49973 7.78322 9.35107 7.93188C9.20241 8.08054 9.1189 8.28216 9.1189 8.4924Z" fill="#174948"/>
</svg>
