<svg width="20" height="22" viewBox="0 0 20 22" fill="none" xmlns="http://www.w3.org/2000/svg">
<path d="M10 19.6875C5.52 19.6875 1.875 16.0428 1.875 11.5625C1.875 7.0825 5.52 3.4375 10 3.4375C14.4803 3.4375 18.125 7.0825 18.125 11.5625C18.125 16.0428 14.4803 19.6875 10 19.6875ZM10 4.0625C5.86469 4.0625 2.5 7.42719 2.5 11.5625C2.5 15.6978 5.86469 19.0625 10 19.0625C14.1353 19.0625 17.5 15.6978 17.5 11.5625C17.5 7.42719 14.1353 4.0625 10 4.0625Z" fill="#BB976E"/>
<path d="M17.2834 4.72094L17.5131 4.49156L17.7341 4.71281C17.7928 4.77156 17.8719 4.80438 17.955 4.80438C18.0381 4.80438 18.1175 4.77156 18.1759 4.71281L18.8387 4.05C18.9609 3.92781 18.9609 3.73031 18.8387 3.60813L17.955 2.72406C17.8962 2.66531 17.8172 2.6325 17.7341 2.6325C17.6509 2.6325 17.5716 2.66531 17.5131 2.72406L16.8503 3.38688C16.7281 3.50906 16.7281 3.70656 16.8503 3.82875L17.0712 4.04969L16.8416 4.27938C15.2656 2.79781 13.2113 1.82031 10.9375 1.60781V0.625H11.25C11.4228 0.625 11.5625 0.485 11.5625 0.3125C11.5625 0.14 11.4228 0 11.25 0H10.625H9.375H8.75C8.5775 0 8.4375 0.14 8.4375 0.3125C8.4375 0.485 8.5775 0.625 8.75 0.625H9.0625V1.60781C6.78844 1.82031 4.73437 2.79781 3.15844 4.27906L2.92906 4.04969L3.15 3.82844C3.27219 3.70625 3.27219 3.50875 3.15 3.38656L2.48719 2.72375C2.37 2.60656 2.1625 2.60656 2.04531 2.72375L1.16125 3.60781C1.1025 3.66656 1.06969 3.74594 1.06969 3.82875C1.06969 3.91156 1.1025 3.99125 1.16125 4.04969L1.82438 4.7125C1.88313 4.77125 1.9625 4.80406 2.04531 4.80406C2.12812 4.80406 2.20781 4.77125 2.26625 4.7125L2.48719 4.49125L2.71656 4.72062C1.03406 6.51094 0 8.91781 0 11.5625C0 17.0766 4.48594 21.5625 10 21.5625C15.5141 21.5625 20 17.0766 20 11.5625C20 8.91781 18.9659 6.51094 17.2834 4.72094ZM17.7341 3.38656L18.1759 3.82875L17.955 4.04969L17.5131 3.6075L17.7341 3.38656ZM2.045 4.04969L1.82375 3.82875L2.26594 3.38656L2.48688 3.6075L2.045 4.04969ZM9.6875 1.5625V0.625H10.3125V1.5625H9.6875ZM10 20.9375C4.83063 20.9375 0.625 16.7319 0.625 11.5625C0.625 6.39313 4.83063 2.1875 10 2.1875C15.1694 2.1875 19.375 6.39313 19.375 11.5625C19.375 16.7319 15.1694 20.9375 10 20.9375Z" fill="#BB976E"/>
<path d="M10.3127 10.3569V7.5C10.3127 7.3275 10.1727 7.1875 10.0002 7.1875C9.82774 7.1875 9.68774 7.3275 9.68774 7.5V10.3569C9.15024 10.4966 8.75024 10.9819 8.75024 11.5625C8.75024 12.2519 9.31087 12.8125 10.0002 12.8125C10.6896 12.8125 11.2502 12.2519 11.2502 11.5625C11.2502 10.9819 10.8506 10.4966 10.3127 10.3569ZM10.0002 12.1875C9.65556 12.1875 9.37524 11.9072 9.37524 11.5625C9.37524 11.2178 9.65556 10.9375 10.0002 10.9375C10.3449 10.9375 10.6252 11.2178 10.6252 11.5625C10.6252 11.9072 10.3449 12.1875 10.0002 12.1875Z" fill="#BB976E"/>
<path d="M9.99976 5.625C9.82726 5.625 9.68726 5.485 9.68726 5.3125V5C9.68726 4.8275 9.82726 4.6875 9.99976 4.6875C10.1723 4.6875 10.3123 4.8275 10.3123 5V5.3125C10.3123 5.485 10.1723 5.625 9.99976 5.625Z" fill="#BB976E"/>
<path d="M5.58064 7.45515C5.50064 7.45515 5.42063 7.42452 5.3597 7.36358L5.13876 7.14265C5.01657 7.02046 5.01657 6.82296 5.13876 6.70077C5.26095 6.57858 5.45845 6.57858 5.58064 6.70077L5.80157 6.92171C5.92376 7.0439 5.92376 7.2414 5.80157 7.36358C5.74063 7.42483 5.66064 7.45515 5.58064 7.45515Z" fill="#BB976E"/>
<path d="M3.75 11.875H3.4375C3.265 11.875 3.125 11.7353 3.125 11.5625C3.125 11.3897 3.265 11.25 3.4375 11.25H3.75C3.9225 11.25 4.0625 11.3897 4.0625 11.5625C4.0625 11.7353 3.9225 11.875 3.75 11.875Z" fill="#BB976E"/>
<path d="M5.3597 16.5157C5.2797 16.5157 5.1997 16.4851 5.13876 16.4241C5.01657 16.3019 5.01657 16.1044 5.13876 15.9823L5.3597 15.7613C5.48188 15.6391 5.67938 15.6391 5.80157 15.7613C5.92376 15.8835 5.92376 16.081 5.80157 16.2032L5.58064 16.4241C5.5197 16.4851 5.4397 16.5157 5.3597 16.5157Z" fill="#BB976E"/>
<path d="M9.99976 18.4375C9.82726 18.4375 9.68726 18.2978 9.68726 18.125V17.8125C9.68726 17.6397 9.82726 17.5 9.99976 17.5C10.1723 17.5 10.3123 17.6397 10.3123 17.8125V18.125C10.3123 18.2978 10.1723 18.4375 9.99976 18.4375Z" fill="#BB976E"/>
<path d="M14.6402 16.5157C14.5602 16.5157 14.4802 16.4851 14.4193 16.4241L14.1983 16.2032C14.0761 16.081 14.0761 15.8835 14.1983 15.7613C14.3205 15.6391 14.518 15.6391 14.6402 15.7613L14.8611 15.9823C14.9833 16.1044 14.9833 16.3019 14.8611 16.4241C14.7999 16.4851 14.7199 16.5157 14.6402 16.5157Z" fill="#BB976E"/>
<path d="M16.5627 11.875H16.2502C16.0774 11.875 15.9377 11.7353 15.9377 11.5625C15.9377 11.3897 16.0774 11.25 16.2502 11.25H16.5627C16.7356 11.25 16.8752 11.3897 16.8752 11.5625C16.8752 11.7353 16.7356 11.875 16.5627 11.875Z" fill="#BB976E"/>
<path d="M14.4193 7.45515C14.3393 7.45515 14.2593 7.42452 14.1983 7.36358C14.0761 7.2414 14.0761 7.0439 14.1983 6.92171L14.4193 6.70077C14.5415 6.57858 14.739 6.57858 14.8611 6.70077C14.9833 6.82296 14.9833 7.02046 14.8611 7.14265L14.6402 7.36358C14.579 7.42483 14.499 7.45515 14.4193 7.45515Z" fill="#BB976E"/>
</svg>
