<svg width="30" height="30" viewBox="0 0 30 30" fill="none" xmlns="http://www.w3.org/2000/svg">
<path d="M27.6 7.842V0H19.389V2.775L15 0.066L0 9.324V30H30V9.324L27.6 7.842ZM21.189 1.8H25.8V6.732L21.189 3.9V1.8ZM28.2 28.2H1.8V10.326L15 2.181L28.2 10.326V28.2Z" fill="#BD9A71"/>
<path fill-rule="evenodd" clip-rule="evenodd" d="M8.32812 18.2969V20.4219H20.0156V21.75H8.32812V22.5469H7V18.2969H8.32812ZM8.32812 16.4375H7V13.25H8.32812V14.3125H13.375V15.6406H8.32812V16.4375ZM8.32812 24.4062V24.6719H22.6719V15.6406H17.625V14.3125H22.6719V10.3281H18.9531V12.1875H17.625V10.3281H7V9H24V26H7V24.4062H8.32812Z" fill="#BD9A71"/>
</svg>
