<svg width="32" height="32" viewBox="0 0 32 32" fill="none" xmlns="http://www.w3.org/2000/svg">
<path d="M16 1C13.0333 1 10.1332 1.87973 7.66645 3.52796C5.19972 5.17618 3.27713 7.51886 2.14181 10.2597C1.0065 13.0006 0.709449 16.0166 1.28823 18.9264C1.86701 21.8361 3.29562 24.5088 5.3934 26.6066C7.49119 28.7044 10.1639 30.133 13.0736 30.7118C15.9834 31.2906 18.9994 30.9935 21.7403 29.8582C24.4811 28.7229 26.8238 26.8003 28.472 24.3335C30.1203 21.8668 31 18.9667 31 16C30.9955 12.0231 29.4137 8.21044 26.6016 5.39837C23.7896 2.5863 19.9769 1.0045 16 1ZM16 30C13.2311 30 10.5243 29.1789 8.22202 27.6406C5.91973 26.1022 4.12532 23.9157 3.06569 21.3576C2.00607 18.7994 1.72882 15.9845 2.26901 13.2687C2.80921 10.553 4.14258 8.05844 6.10051 6.1005C8.05844 4.14257 10.553 2.8092 13.2687 2.26901C15.9845 1.72881 18.7994 2.00606 21.3576 3.06569C23.9157 4.12531 26.1022 5.91973 27.6406 8.22201C29.1789 10.5243 30 13.2311 30 16C29.9958 19.7117 28.5194 23.2702 25.8948 25.8948C23.2702 28.5194 19.7117 29.9958 16 30Z" fill="#BB976E" stroke="#BB976E" stroke-width="0.4"/>
<path d="M16 3C13.4288 3 10.9154 3.76244 8.77759 5.19089C6.63975 6.61935 4.97351 8.64967 3.98957 11.0251C3.00563 13.4006 2.74819 16.0144 3.2498 18.5362C3.7514 21.0579 4.98953 23.3743 6.80762 25.1924C8.6257 27.0105 10.9421 28.2486 13.4638 28.7502C15.9856 29.2518 18.5994 28.9944 20.9749 28.0104C23.3503 27.0265 25.3806 25.3602 26.8091 23.2224C28.2376 21.0846 29 18.5712 29 16C28.9962 12.5534 27.6253 9.24899 25.1881 6.81185C22.751 4.37471 19.4466 3.00384 16 3ZM27.9875 16.5C27.8712 19.3344 26.7508 22.0351 24.8265 24.1195L22.8535 22.1465L22.1465 22.8535L24.1195 24.8265C22.0351 26.7508 19.3344 27.8712 16.5 27.9875V25H15.5V27.9875C12.6656 27.8712 9.96486 26.7508 7.8805 24.8265L9.8535 22.8535L9.1465 22.1465L7.1735 24.1195C5.24919 22.0351 4.12878 19.3344 4.01251 16.5H7V15.5H4.01251C4.12878 12.6656 5.24919 9.96485 7.1735 7.8805L9.1465 9.8535L9.8535 9.1465L7.8805 7.1735C9.96486 5.24919 12.6656 4.12877 15.5 4.0125V7H16.5V4.0125C19.3344 4.12877 22.0351 5.24919 24.1195 7.1735L22.1465 9.1465L22.8535 9.8535L24.8265 7.8805C26.7508 9.96485 27.8712 12.6656 27.9875 15.5H25V16.5H27.9875Z" fill="#BB976E" stroke="#BB976E" stroke-width="0.4"/>
<path d="M16 15.293L10.8535 10.1465L10.1465 10.8535L15.399 16.106L12.047 23.2885L12.953 23.7115L16.416 16.291L22.3535 10.3535L21.6465 9.64648L16 15.293Z" fill="#BB976E" stroke="#BB976E" stroke-width="0.4"/>
</svg>
