<svg width="24" height="24" viewBox="0 0 24 24" fill="none" xmlns="http://www.w3.org/2000/svg">
<path d="M6 1C3.2445 1 1 3.2445 1 6C1 8.7555 3.2445 11 6 11C8.7555 11 11 8.7555 11 6C11 3.2445 8.7555 1 6 1ZM18 1C15.2445 1 13 3.2445 13 6C13 8.7555 15.2445 11 18 11C20.7555 11 23 8.7555 23 6C23 3.2445 20.7555 1 18 1ZM6 2C8.21506 2 10 3.78494 10 6C10 8.21506 8.21506 10 6 10C3.78494 10 2 8.21506 2 6C2 3.78494 3.78494 2 6 2ZM18 2C20.2151 2 22 3.78494 22 6C22 8.21506 20.2151 10 18 10C15.7849 10 14 8.21506 14 6C14 3.78494 15.7849 2 18 2ZM5.94531 3.74219C5.69962 3.76919 5.49468 4.00289 5.5 4.25V5.5C5.07002 5.5 4.62927 5.5 4.20312 5.5C3.94129 5.51222 3.71419 5.76161 3.72646 6.02344C3.73874 6.28527 3.98817 6.51233 4.25 6.5H5.5V7.75C5.49627 8.01415 5.73582 8.2571 6 8.2571C6.26418 8.2571 6.50373 8.01415 6.5 7.75V6.5H7.75C8.01415 6.50373 8.2571 6.26418 8.2571 6C8.2571 5.73582 8.01415 5.49627 7.75 5.5H6.5V4.25C6.50611 3.96636 6.22731 3.71112 5.94531 3.74219ZM16.6953 4.24219C16.506 4.26061 16.3332 4.39682 16.2711 4.57661C16.209 4.7564 16.2609 4.97021 16.3984 5.10156L17.2969 6L16.3984 6.89062C16.2064 7.07331 16.2011 7.41612 16.3875 7.6046C16.5739 7.79307 16.9168 7.79162 17.1016 7.60156L18 6.70312L18.8984 7.60156C19.0832 7.79161 19.4261 7.79307 19.6125 7.6046C19.7989 7.41612 19.7936 7.07331 19.6016 6.89063L18.7031 6L19.6016 5.10156C19.7553 4.95713 19.8013 4.71008 19.7097 4.52001C19.6181 4.32995 19.3963 4.21192 19.1875 4.24219C19.0783 4.25796 18.9749 4.31108 18.8984 4.39062L18 5.28906L17.1016 4.39062C16.9974 4.28393 16.8437 4.22776 16.6953 4.24219ZM6.40625 13C6.16741 13.0383 5.97622 13.2717 5.98573 13.5134C5.99525 13.7551 6.2042 13.9728 6.44531 13.9922C8.43826 14.2163 10 15.9394 10 18C10 20.215 8.21506 22 6 22C3.78494 22 2 20.215 2 18C2 16.2565 3.11549 14.7684 4.66406 14.2188C4.91154 14.1328 5.05856 13.8295 4.97266 13.582C4.88675 13.3345 4.58342 13.1875 4.33594 13.2734C2.39469 13.9624 1 15.829 1 18C1 20.7555 3.2445 23 6 23C8.7555 23 11 20.7555 11 18C11 15.4339 9.05356 13.281 6.55469 13C6.50558 12.9926 6.45536 12.9926 6.40625 13ZM18 13C15.2445 13 13 15.2445 13 18C13 20.7555 15.2445 23 18 23C20.7555 23 23 20.7555 23 18C23 15.2445 20.7555 13 18 13ZM18 14C20.2151 14 22 15.785 22 18C22 20.215 20.2151 22 18 22C15.7849 22 14 20.215 14 18C14 15.785 15.7849 14 18 14ZM16.2031 16.5C15.9413 16.5122 15.7142 16.7616 15.7265 17.0234C15.7387 17.2853 15.9882 17.5123 16.25 17.5H19.75C20.0142 17.5037 20.2571 17.2642 20.2571 17C20.2571 16.7358 20.0142 16.4963 19.75 16.5C18.5693 16.5 17.3803 16.5 16.2031 16.5ZM4.20312 17.5C3.94129 17.5122 3.71419 17.7616 3.72646 18.0234C3.73874 18.2853 3.98817 18.5123 4.25 18.5H7.75C8.01415 18.5037 8.2571 18.2642 8.2571 18C8.2571 17.7358 8.01415 17.4963 7.75 17.5C6.5693 17.5 5.38028 17.5 4.20312 17.5ZM16.2031 18.5C15.9413 18.5122 15.7142 18.7616 15.7265 19.0234C15.7387 19.2853 15.9882 19.5123 16.25 19.5H19.75C20.0142 19.5037 20.2571 19.2642 20.2571 19C20.2571 18.7358 20.0142 18.4963 19.75 18.5C18.5693 18.5 17.3803 18.5 16.2031 18.5Z" fill="white" stroke="white" stroke-width="0.5"/>
</svg>
