<svg width="109" height="36" viewBox="0 0 109 36" fill="none" xmlns="http://www.w3.org/2000/svg">
<path d="M63.544 26.9711H65.9093V35.3601H61.5572V31.1341H49.3522V35.3601H45V26.9711H47.1445C48.364 25.2681 48.9737 22.7767 48.9737 19.4968V9.05786H63.544V26.9711ZM51.8121 26.9711H59.1919V13.1262H53.3259V19.5598C53.3259 22.7556 52.8213 25.2261 51.8121 26.9711Z" fill="#BB976E"/>
<path d="M108.251 31.1341H103.237L95.3522 20.7898V31.1341H91V9.05786H95.3522V18.8029L102.921 9.05786H107.936L99.7674 19.7806L108.251 31.1341Z" fill="#BB976E"/>
<path d="M79.2482 32.0171C75.9262 32.0171 73.1825 30.9133 71.0169 28.7057C68.8513 26.4981 67.7686 23.7753 67.7686 20.5375C67.7686 17.2786 68.8513 14.5559 71.0169 12.3693C73.1825 10.1617 75.9262 9.05786 79.2482 9.05786C81.2456 9.05786 83.0852 9.53092 84.7672 10.477C86.4703 11.4021 87.7948 12.6636 88.741 14.2615L84.988 16.4376C84.4414 15.4495 83.6634 14.682 82.6542 14.1354C81.645 13.5677 80.5097 13.2839 79.2482 13.2839C77.1036 13.2839 75.3691 13.9567 74.0445 15.3023C72.741 16.6479 72.0892 18.3929 72.0892 20.5375C72.0892 22.661 72.741 24.3956 74.0445 25.7412C75.3691 27.0868 77.1036 27.7596 79.2482 27.7596C80.5097 27.7596 81.645 27.4862 82.6542 26.9396C83.6845 26.3719 84.4624 25.6045 84.988 24.6374L88.741 26.8134C87.7948 28.4113 86.4808 29.6834 84.7988 30.6295C83.1168 31.5546 81.2666 32.0171 79.2482 32.0171Z" fill="#BB976E"/>
<path d="M32.2 9.149V0H22.6205V3.2375L17.5 0.077L0 10.878V35H35V10.878L32.2 9.149ZM24.7205 2.1H30.1V7.854L24.7205 4.55V2.1ZM32.9 32.9H2.1V12.047L17.5 2.5445L32.9 12.047V32.9Z" fill="#BB976E"/>
<line x1="23" y1="5" x2="23" y2="35" stroke="#BB976E" stroke-width="2"/>
<line x1="18" y1="2" x2="18" y2="35" stroke="#BB976E" stroke-width="2"/>
<line x1="13" y1="4" x2="13" y2="35" stroke="#BB976E" stroke-width="2"/>
<line x1="8" y1="7" x2="8" y2="35" stroke="#BB976E" stroke-width="2"/>
</svg>
