<svg width="234" height="36" viewBox="0 0 234 36" fill="none" xmlns="http://www.w3.org/2000/svg">
<path d="M116.45 12.42C116.45 14.51 117.89 16.12 120.12 16.12C121.39 16.12 122.3 15.59 122.91 14.97L122.23 14.04C121.69 14.57 120.93 14.94 120.17 14.94C118.63 14.94 117.78 13.73 117.78 12.4C117.78 11.09 118.6 9.96 120.16 9.96C120.85 9.96 121.6 10.28 122.1 10.71L122.72 9.75C122.03 9.08 121.03 8.78 120.1 8.78C117.96 8.78 116.45 10.36 116.45 12.42ZM126.128 16H127.408V10.01H129.738V8.9H123.798V10.01H126.128V16ZM131.249 16H132.539V13.55H133.989C135.319 13.55 136.249 12.59 136.249 11.21C136.249 9.83 135.319 8.9 133.989 8.9H131.249V16ZM132.539 12.43V10.01H133.769C134.499 10.01 134.939 10.48 134.939 11.21C134.939 11.95 134.499 12.43 133.749 12.43H132.539ZM137.452 12.4C137.452 14.49 139.032 16.12 141.122 16.12C143.212 16.12 144.792 14.49 144.792 12.4C144.792 10.37 143.212 8.78 141.122 8.78C139.032 8.78 137.452 10.37 137.452 12.4ZM138.782 12.4C138.782 11.02 139.822 9.96 141.122 9.96C142.422 9.96 143.462 11.02 143.462 12.4C143.462 13.84 142.422 14.94 141.122 14.94C139.822 14.94 138.782 13.84 138.782 12.4ZM146.594 16H147.874L150.574 11.91C150.834 11.49 151.164 10.81 151.164 10.81H151.184C151.184 10.81 151.114 11.49 151.114 11.91V16H152.394V8.9H151.114L148.434 12.99C148.174 13.41 147.834 14.1 147.834 14.1H147.814C147.814 14.1 147.884 13.42 147.884 13V8.9H146.594V16ZM156.234 16H157.514V10.01H159.844V8.9H153.904V10.01H156.234V16ZM161.354 16H165.764V14.89H162.644V12.98H165.034V11.87H162.644V10.01H165.604V8.9H161.354V16ZM166.828 14.9V16.08C168.798 16.01 169.588 14.3 169.588 10.86V10.01H171.458V16H172.748V8.9H168.358V10.84C168.358 13.59 167.878 14.76 166.828 14.9ZM174.971 16H177.671C178.971 16 179.871 15.07 179.871 13.71C179.871 12.29 178.941 11.39 177.651 11.39H176.261V8.9H174.971V16ZM176.261 14.89V12.5H177.421C178.131 12.5 178.561 12.98 178.561 13.71C178.561 14.43 178.151 14.89 177.441 14.89H176.261ZM181.087 12.42C181.087 14.51 182.527 16.12 184.757 16.12C186.027 16.12 186.937 15.59 187.547 14.97L186.867 14.04C186.327 14.57 185.567 14.94 184.807 14.94C183.267 14.94 182.417 13.73 182.417 12.4C182.417 11.09 183.237 9.96 184.797 9.96C185.487 9.96 186.237 10.28 186.737 10.71L187.357 9.75C186.667 9.08 185.667 8.78 184.737 8.78C182.597 8.78 181.087 10.36 181.087 12.42ZM190.765 16H192.045V10.01H194.375V8.9H188.435V10.01H190.765V16ZM195.885 16H198.455C199.765 16 200.905 15.36 200.905 13.94C200.905 13.22 200.535 12.5 199.755 12.27V12.25C200.295 11.96 200.615 11.39 200.615 10.73C200.615 9.56 199.705 8.9 198.415 8.9H195.885V16ZM197.175 11.8V10.01H198.405C198.995 10.01 199.305 10.38 199.305 10.89C199.305 11.4 198.985 11.8 198.425 11.8H197.175ZM197.175 14.89V12.84H198.555C199.205 12.84 199.585 13.27 199.585 13.86C199.585 14.46 199.215 14.89 198.555 14.89H197.175ZM202.294 12.4C202.294 14.49 203.874 16.12 205.964 16.12C208.054 16.12 209.634 14.49 209.634 12.4C209.634 10.37 208.054 8.78 205.964 8.78C203.874 8.78 202.294 10.37 202.294 12.4ZM203.624 12.4C203.624 11.02 204.664 9.96 205.964 9.96C207.264 9.96 208.304 11.02 208.304 12.4C208.304 13.84 207.264 14.94 205.964 14.94C204.664 14.94 203.624 13.84 203.624 12.4ZM116.22 29.11C116.83 29.76 117.74 30.12 118.64 30.12C119.99 30.12 121.1 29.31 121.1 27.97C121.1 27.13 120.63 26.54 119.91 26.32V26.3C120.39 26.04 120.89 25.56 120.89 24.72C120.89 23.46 119.85 22.78 118.71 22.78C118.02 22.78 117.2 22.92 116.43 23.56L116.95 24.5C117.46 24.08 118.01 23.9 118.49 23.9C119.23 23.9 119.58 24.34 119.58 24.88C119.58 25.44 119.12 25.86 118.48 25.86H117.78V26.9H118.65C119.34 26.9 119.78 27.27 119.78 27.89C119.78 28.58 119.28 28.98 118.52 28.98C117.88 28.98 117.28 28.63 116.92 28.25L116.22 29.11ZM122.059 30H123.379L123.979 28.18H126.469L127.079 30H128.399L125.909 22.9H124.549L122.059 30ZM124.299 27.13L124.939 25.23C125.059 24.83 125.219 24.13 125.219 24.13H125.239C125.239 24.13 125.399 24.83 125.519 25.23L126.149 27.13H124.299ZM129.842 30H131.132V24.01H133.922V22.9H129.842V30ZM134.727 26.4C134.727 28.49 136.307 30.12 138.397 30.12C140.487 30.12 142.067 28.49 142.067 26.4C142.067 24.37 140.487 22.78 138.397 22.78C136.307 22.78 134.727 24.37 134.727 26.4ZM136.057 26.4C136.057 25.02 137.097 23.96 138.397 23.96C139.697 23.96 140.737 25.02 140.737 26.4C140.737 27.84 139.697 28.94 138.397 28.94C137.097 28.94 136.057 27.84 136.057 26.4ZM143.87 30H145.16V27.55H146.61C147.94 27.55 148.87 26.59 148.87 25.21C148.87 23.83 147.94 22.9 146.61 22.9H143.87V30ZM145.16 26.43V24.01H146.39C147.12 24.01 147.56 24.48 147.56 25.21C147.56 25.95 147.12 26.43 146.37 26.43H145.16ZM150.073 26.4C150.073 28.49 151.653 30.12 153.743 30.12C155.833 30.12 157.413 28.49 157.413 26.4C157.413 24.37 155.833 22.78 153.743 22.78C151.653 22.78 150.073 24.37 150.073 26.4ZM151.403 26.4C151.403 25.02 152.443 23.96 153.743 23.96C155.043 23.96 156.083 25.02 156.083 26.4C156.083 27.84 155.043 28.94 153.743 28.94C152.443 28.94 151.403 27.84 151.403 26.4ZM160.241 28.89C160.981 27.69 161.161 25.93 161.161 24.54V24.01H163.061V28.89H160.241ZM158.191 28.89V31.4H159.381V30H163.991V31.4H165.141V28.89H164.351V22.9H159.941V24.45C159.941 25.89 159.791 27.56 158.911 28.89H158.191ZM166.883 30H168.173V27.02H171.423V30H172.703V22.9H171.423V25.91H168.173V22.9H166.883V30ZM180.673 30H181.953V22.9H180.673V30ZM174.923 30H177.563C178.853 30 179.753 29.07 179.753 27.71C179.753 26.29 178.833 25.39 177.533 25.39H176.213V22.9H174.923V30ZM176.213 28.89V26.5H177.313C178.023 26.5 178.443 26.98 178.443 27.71C178.443 28.43 178.043 28.89 177.333 28.89H176.213ZM183.452 30H184.882L185.982 28.09C186.212 27.68 186.412 27.25 186.412 27.25H186.432C186.432 27.25 186.642 27.68 186.872 28.09L187.982 30H189.422L187.212 26.4L189.342 22.9H187.872L186.882 24.64C186.642 25.06 186.442 25.5 186.442 25.5H186.422C186.422 25.5 186.202 25.05 185.982 24.64L185.002 22.9H183.532L185.652 26.4L183.452 30ZM195.163 28.89C195.903 27.69 196.083 25.93 196.083 24.54V24.01H197.983V28.89H195.163ZM193.113 28.89V31.4H194.303V30H198.913V31.4H200.063V28.89H199.273V22.9H194.863V24.45C194.863 25.89 194.713 27.56 193.833 28.89H193.113ZM201.268 26.4C201.268 28.49 202.848 30.12 204.938 30.12C207.028 30.12 208.608 28.49 208.608 26.4C208.608 24.37 207.028 22.78 204.938 22.78C202.848 22.78 201.268 24.37 201.268 26.4ZM202.598 26.4C202.598 25.02 203.638 23.96 204.938 23.96C206.238 23.96 207.278 25.02 207.278 26.4C207.278 27.84 206.238 28.94 204.938 28.94C203.638 28.94 202.598 27.84 202.598 26.4ZM210.141 30H211.431L211.721 26.03C211.761 25.56 211.731 24.92 211.731 24.92H211.751C211.751 24.92 211.981 25.62 212.141 26.03L213.291 28.78H214.411L215.561 26.03C215.721 25.62 215.951 24.93 215.951 24.93H215.971C215.971 24.93 215.941 25.56 215.981 26.03L216.271 30H217.561L216.981 22.9H215.611L214.211 26.41C214.051 26.83 213.861 27.45 213.861 27.45H213.841C213.841 27.45 213.651 26.83 213.491 26.41L212.091 22.9H210.721L210.141 30ZM219.094 26.4C219.094 28.49 220.674 30.12 222.764 30.12C224.854 30.12 226.434 28.49 226.434 26.4C226.434 24.37 224.854 22.78 222.764 22.78C220.674 22.78 219.094 24.37 219.094 26.4ZM220.424 26.4C220.424 25.02 221.464 23.96 222.764 23.96C224.064 23.96 225.104 25.02 225.104 26.4C225.104 27.84 224.064 28.94 222.764 28.94C221.464 28.94 220.424 27.84 220.424 26.4ZM228.237 30H230.807C232.117 30 233.257 29.36 233.257 27.94C233.257 27.22 232.887 26.5 232.107 26.27V26.25C232.647 25.96 232.967 25.39 232.967 24.73C232.967 23.56 232.057 22.9 230.767 22.9H228.237V30ZM229.527 25.8V24.01H230.757C231.347 24.01 231.657 24.38 231.657 24.89C231.657 25.4 231.337 25.8 230.777 25.8H229.527ZM229.527 28.89V26.84H230.907C231.557 26.84 231.937 27.27 231.937 27.86C231.937 28.46 231.567 28.89 230.907 28.89H229.527Z" fill="#BB976E"/>
<path d="M63.544 26.9711H65.9093V35.3601H61.5572V31.1341H49.3522V35.3601H45V26.9711H47.1445C48.364 25.2681 48.9737 22.7767 48.9737 19.4968V9.05786H63.544V26.9711ZM51.8121 26.9711H59.1919V13.1262H53.3259V19.5598C53.3259 22.7556 52.8213 25.2261 51.8121 26.9711Z" fill="#174948"/>
<path d="M108.251 31.1341H103.237L95.3522 20.7898V31.1341H91V9.05786H95.3522V18.8029L102.921 9.05786H107.936L99.7674 19.7806L108.251 31.1341Z" fill="#174948"/>
<path d="M79.2483 32.0171C75.9264 32.0171 73.1826 30.9133 71.017 28.7057C68.8515 26.4981 67.7687 23.7753 67.7687 20.5375C67.7687 17.2786 68.8515 14.5559 71.017 12.3693C73.1826 10.1617 75.9264 9.05786 79.2483 9.05786C81.2457 9.05786 83.0854 9.53092 84.7674 10.477C86.4704 11.4021 87.795 12.6636 88.7411 14.2615L84.9881 16.4376C84.4415 15.4495 83.6636 14.682 82.6544 14.1354C81.6452 13.5677 80.5098 13.2839 79.2483 13.2839C77.1038 13.2839 75.3692 13.9567 74.0446 15.3023C72.7411 16.6479 72.0893 18.3929 72.0893 20.5375C72.0893 22.661 72.7411 24.3956 74.0446 25.7412C75.3692 27.0868 77.1038 27.7596 79.2483 27.7596C80.5098 27.7596 81.6452 27.4862 82.6544 26.9396C83.6846 26.3719 84.4625 25.6045 84.9881 24.6374L88.7411 26.8134C87.795 28.4113 86.4809 29.6834 84.7989 30.6295C83.1169 31.5546 81.2667 32.0171 79.2483 32.0171Z" fill="#BB976E"/>
<path d="M32.2 9.149V0H22.6205V3.2375L17.5 0.077L0 10.878V35H35V10.878L32.2 9.149ZM24.7205 2.1H30.1V7.854L24.7205 4.55V2.1ZM32.9 32.9H2.1V12.047L17.5 2.5445L32.9 12.047V32.9Z" fill="#BB976E"/>
<line x1="23" y1="5" x2="23" y2="35" stroke="#BB976E" stroke-width="2"/>
<line x1="18" y1="2" x2="18" y2="35" stroke="#BB976E" stroke-width="2"/>
<line x1="13" y1="4" x2="13" y2="35" stroke="#BB976E" stroke-width="2"/>
<line x1="8" y1="7" x2="8" y2="35" stroke="#BB976E" stroke-width="2"/>
</svg>
