<svg width="73" height="25" viewBox="0 0 73 25" fill="none" xmlns="http://www.w3.org/2000/svg">
<path d="M42.8515 18.7028H44.4466V24.3599H41.5117V21.5101H33.2811V24.3599H30.3462V18.7028H31.7924C32.6147 17.5543 33.0259 15.8742 33.0259 13.6624V6.6228H42.8515V18.7028ZM34.94 18.7028H39.9166V9.36632H35.9608V13.7049C35.9608 15.86 35.6205 17.526 34.94 18.7028Z" fill="#174948"/>
<path d="M73.0001 21.5101H69.6185L64.3016 14.5343V21.5101H61.3667V6.6228H64.3016V13.1945L69.4058 6.6228H72.7874L67.2791 13.8538L73.0001 21.5101Z" fill="#174948"/>
<path d="M53.4418 22.1056C51.2016 22.1056 49.3514 21.3612 47.891 19.8725C46.4306 18.3838 45.7004 16.5477 45.7004 14.3642C45.7004 12.1665 46.4306 10.3304 47.891 8.8559C49.3514 7.36717 51.2016 6.6228 53.4418 6.6228C54.7888 6.6228 56.0294 6.94182 57.1637 7.57984C58.3121 8.20369 59.2053 9.05439 59.8434 10.132L57.3125 11.5994C56.9439 10.933 56.4193 10.4155 55.7387 10.0469C55.0582 9.66406 54.2925 9.47266 53.4418 9.47266C51.9956 9.47266 50.8259 9.92636 49.9327 10.8338C49.0536 11.7412 48.6141 12.918 48.6141 14.3642C48.6141 15.7962 49.0536 16.9659 49.9327 17.8733C50.8259 18.7808 51.9956 19.2345 53.4418 19.2345C54.2925 19.2345 55.0582 19.0501 55.7387 18.6815C56.4335 18.2987 56.9581 17.7812 57.3125 17.129L59.8434 18.5964C59.2053 19.674 58.3192 20.5318 57.1849 21.1698C56.0506 21.7937 54.803 22.1056 53.4418 22.1056Z" fill="#BB976E"/>
<path d="M21.7144 6.68436V0.514648H15.2543V2.69788L11.8013 0.566574L0 7.85032V24.1172H23.6026V7.85032L21.7144 6.68436ZM16.6705 1.9308H20.2982V5.81106L16.6705 3.58298V1.9308ZM22.1864 22.7011H1.41615V8.63865L11.8013 2.23055L22.1864 8.63865V22.7011Z" fill="#BB976E"/>
<line x1="15.5859" y1="3.88672" x2="15.5859" y2="24.1175" stroke="#BB976E" stroke-width="1.5"/>
<line x1="12.2141" y1="1.86353" x2="12.2141" y2="24.1174" stroke="#BB976E" stroke-width="1.5"/>
<line x1="8.84229" y1="3.21216" x2="8.84229" y2="24.1173" stroke="#BB976E" stroke-width="1.5"/>
<line x1="5.47046" y1="5.23535" x2="5.47046" y2="24.1174" stroke="#BB976E" stroke-width="1.5"/>
</svg>
