<svg width="59" height="48" viewBox="0 0 59 48" fill="none" xmlns="http://www.w3.org/2000/svg">
<path d="M46.093 16.1309C44.7334 16.1309 43.4012 16.2045 42.1158 16.3466V4.76606C42.1158 1.63732 35.6227 0 29.2088 0C22.7949 0 16.3011 1.63732 16.3011 4.76606V9.08616C15.189 8.98275 14.0579 8.91361 12.907 8.91361C6.49317 8.91361 0.000634409 10.5509 0 13.679V37.7219C0 40.8506 6.49317 42.4873 12.907 42.4873C14.0579 42.4873 15.189 42.4181 16.3011 42.3147V43.2339C16.3011 46.3627 22.7943 48 29.2088 48C35.6233 48 42.1158 46.3627 42.1158 43.2339V39.8717C43.4005 40.0139 44.7322 40.0874 46.093 40.0874C52.5068 40.0874 59 38.4501 59 35.3214V20.8957C59 17.7676 52.5068 16.1309 46.093 16.1309ZM29.2088 41.2883C22.0888 41.2883 18.2044 39.3972 18.2044 38.4254V36.2298C20.5992 37.6502 24.9202 38.3829 29.2088 38.3829C33.4974 38.3829 37.8177 37.6502 40.2126 36.2298V38.4254C40.2126 39.3972 36.3288 41.2883 29.2088 41.2883ZM18.2044 21.8047C20.5992 23.2251 24.9202 23.9578 29.2088 23.9578C33.4974 23.9578 37.8177 23.2251 40.2126 21.8047V23.2689V24.0003C40.2126 24.9715 36.3288 26.8626 29.2088 26.8626C22.0888 26.8626 18.2044 24.9715 18.2044 24.0003V21.8047ZM18.2044 26.6127C20.5992 28.033 24.9202 28.7657 29.2088 28.7657C33.4974 28.7657 37.8177 28.033 40.2126 26.6127V28.8089C40.2126 29.7801 36.3288 31.6712 29.2088 31.6712C22.0888 31.6712 18.2044 29.7801 18.2044 28.8089V26.6127ZM18.2044 31.4212C20.5992 32.8416 24.9202 33.5743 29.2088 33.5743C33.4974 33.5743 37.8177 32.8416 40.2126 31.4212V33.6174C40.2126 34.5887 36.3288 36.4797 29.2088 36.4797C22.0888 36.4797 18.2044 34.5887 18.2044 33.6174V31.4212ZM29.2088 22.0547C22.0888 22.0547 18.2044 20.1636 18.2044 19.1918V18.0702V16.9962C20.5992 18.4165 24.9202 19.1493 29.2088 19.1493C33.4974 19.1493 37.8177 18.4165 40.2126 16.9962V19.1918C40.2126 20.1636 36.3288 22.0547 29.2088 22.0547ZM29.2088 17.2461C22.0888 17.2461 18.2044 15.3551 18.2044 14.3832V12.1876C20.5992 13.608 24.9202 14.3407 29.2088 14.3407C33.4974 14.3407 37.8177 13.608 40.2126 12.1876V14.3832C40.2126 15.3551 36.3288 17.2461 29.2088 17.2461ZM29.2088 12.4369C22.0888 12.4369 18.2044 10.5459 18.2044 9.57463V9.28916V7.38223C18.2221 7.39301 18.2424 7.40252 18.2602 7.41267C18.3807 7.48309 18.5057 7.5516 18.6358 7.61821C18.6522 7.62646 18.6668 7.63534 18.6833 7.64359C18.8337 7.71971 18.9917 7.7933 19.1541 7.86498C19.1871 7.87957 19.2213 7.89353 19.2549 7.90812C19.4002 7.97092 19.5499 8.03182 19.7041 8.09082C19.7244 8.09843 19.7441 8.10668 19.765 8.11429C22.2411 9.05127 25.7354 9.53212 29.2088 9.53212C32.6835 9.53212 36.1797 9.05063 38.6558 8.11302C38.6735 8.10668 38.69 8.0997 38.7078 8.09336C38.8651 8.03309 39.018 7.97092 39.1665 7.90685C39.1976 7.89353 39.2293 7.88021 39.2604 7.86689C39.4241 7.79457 39.5827 7.72098 39.7349 7.64422C39.7489 7.63724 39.7616 7.62963 39.7755 7.62265C39.9081 7.55477 40.035 7.48499 40.1581 7.41331C40.1758 7.40316 40.1955 7.39364 40.2133 7.38349V9.57653C40.2126 10.5465 36.3288 12.4369 29.2088 12.4369ZM29.2088 1.90313C36.3288 1.90313 40.2126 3.7942 40.2126 4.76606C40.2126 5.73729 36.3288 7.62836 29.2088 7.62836C22.0888 7.62836 18.2044 5.73729 18.2044 4.76606C18.2044 3.7942 22.0888 1.90313 29.2088 1.90313ZM12.907 10.8167C14.0566 10.8167 15.1947 10.8713 16.3011 10.9804V16.3624C16.0207 16.3897 15.7416 16.4195 15.458 16.4398C15.2607 16.4544 15.0659 16.4722 14.8674 16.483C14.2196 16.5191 13.5662 16.542 12.9077 16.542C11.1275 16.542 9.54975 16.424 8.1845 16.2311C4.08876 15.6538 1.90386 14.4079 1.90386 13.679C1.90386 12.7078 5.78771 10.8167 12.907 10.8167ZM1.90323 16.2952C1.91591 16.3028 1.93114 16.3098 1.94446 16.3174C2.11195 16.4151 2.28831 16.5103 2.47419 16.6016C2.50591 16.6168 2.53827 16.632 2.56999 16.6473C2.76475 16.7405 2.96586 16.8319 3.17839 16.9175C3.17902 16.9175 3.17902 16.9175 3.17966 16.9182C3.39028 17.0038 3.61169 17.0844 3.83881 17.163C3.87941 17.177 3.91874 17.1909 3.95998 17.2049C4.18012 17.2791 4.40724 17.3502 4.6407 17.4174C4.68511 17.4301 4.72952 17.4428 4.77456 17.4555C5.01881 17.524 5.26813 17.5906 5.52443 17.6521C5.53395 17.6547 5.54346 17.6566 5.55234 17.6585C5.81689 17.7219 6.08842 17.7809 6.36439 17.8367C6.38723 17.8412 6.40943 17.8462 6.43227 17.8507C6.71331 17.9065 7.0007 17.9585 7.29253 18.0061C7.31537 18.0099 7.33757 18.0137 7.36041 18.0169C9.10313 18.3005 11.0083 18.4451 12.9083 18.4451C12.9546 18.4451 13.0003 18.4413 13.0472 18.4407C13.7261 18.4387 14.403 18.4184 15.0723 18.3798C15.1199 18.3772 15.1681 18.3753 15.2157 18.3728C15.5811 18.3506 15.944 18.3233 16.303 18.2903V21.1729C15.2042 21.2827 14.0744 21.3537 12.9121 21.3537C5.79025 21.3537 1.90513 19.4595 1.90513 18.4863V16.2952H1.90323ZM1.90323 21.1012C4.29875 22.5229 8.62034 23.2568 12.9102 23.2568C14.0693 23.2568 15.1979 23.187 16.3011 23.0836V25.9821C15.2023 26.0919 14.0725 26.1629 12.9102 26.1629C5.78834 26.1629 1.90323 24.2687 1.90323 23.2955V21.1012ZM1.90323 25.9098C4.29875 27.3314 8.62034 28.0654 12.9102 28.0654C14.0693 28.0654 15.1979 27.9956 16.3011 27.8922V30.7907C15.2023 30.9004 14.0725 30.9715 12.9102 30.9715C5.78834 30.9715 1.90323 29.0772 1.90323 28.1041V25.9098ZM1.90323 30.7184C4.29875 32.14 8.62034 32.874 12.9102 32.874C14.0693 32.874 15.1979 32.8042 16.3011 32.7008V35.5992C15.2023 35.709 14.0725 35.78 12.9102 35.78C5.78834 35.78 1.90323 33.8858 1.90323 32.9127V30.7184ZM12.907 40.5848C5.78708 40.5848 1.90323 38.6937 1.90323 37.7225V35.5269C4.29875 36.9485 8.62034 37.6825 12.9102 37.6825C14.0693 37.6825 15.1979 37.6127 16.3011 37.5093V40.4218C15.1954 40.5302 14.0572 40.5848 12.907 40.5848ZM29.2088 46.0975C22.0888 46.0975 18.2044 44.2064 18.2044 43.2346V42.113V41.039C20.5992 42.4594 24.9202 43.1921 29.2088 43.1921C33.4974 43.1921 37.8177 42.4594 40.2126 41.039V43.2346C40.2126 44.2064 36.3288 46.0975 29.2088 46.0975ZM46.093 38.1843C44.7283 38.1843 43.3948 38.1082 42.1158 37.9591V35.0664C43.3929 35.2053 44.7233 35.2782 46.0898 35.2782C50.3797 35.2782 54.7012 34.5455 57.0968 33.1258V35.3226C57.0968 36.2932 53.2129 38.1843 46.093 38.1843ZM46.0898 33.3745C44.7176 33.3745 43.3872 33.2958 42.1158 33.1486V30.2578C43.3929 30.3967 44.7239 30.469 46.0898 30.469C50.3797 30.469 54.7012 29.7363 57.0968 28.3166V30.5134C57.0968 31.4847 53.2117 33.3745 46.0898 33.3745ZM46.0898 28.5659C44.7182 28.5659 43.3872 28.4873 42.1158 28.3401V25.4486C42.1425 25.4518 42.1704 25.4537 42.1971 25.4562C42.3005 25.4676 42.4064 25.4759 42.5105 25.486C42.7744 25.512 43.0389 25.5361 43.3073 25.5558C43.497 25.5704 43.6879 25.5812 43.8789 25.5926C44.047 25.6021 44.2145 25.611 44.3832 25.6186C44.6325 25.63 44.8825 25.6389 45.1344 25.6453C45.2086 25.6472 45.2828 25.6478 45.357 25.6491C45.6019 25.6535 45.8455 25.6617 46.0923 25.6617C49.6672 25.6617 53.2643 25.153 55.7506 24.1608C55.7569 24.1583 55.7639 24.1557 55.7709 24.1532C55.9935 24.0638 56.2054 23.9699 56.4097 23.8728C56.4414 23.8576 56.4732 23.843 56.5049 23.8278C56.6965 23.7339 56.8792 23.6362 57.0524 23.5353C57.0663 23.5271 57.0828 23.5201 57.0968 23.5118V25.7055C57.0968 26.6761 53.2117 28.5659 46.0898 28.5659ZM46.093 23.7586C45.4801 23.7586 44.8762 23.7383 44.2779 23.7079C44.1631 23.7022 44.0476 23.6971 43.9334 23.6901C43.3587 23.6552 42.7915 23.6064 42.2351 23.5436C42.1951 23.5391 42.1558 23.5334 42.1165 23.529V18.2592C43.3955 18.1095 44.7296 18.034 46.0936 18.034C53.2136 18.034 57.0974 19.9251 57.0974 20.8963C57.0974 21.8675 53.2129 23.7586 46.093 23.7586Z" fill="#C8A781"/>
</svg>
