<svg width="56" height="56" viewBox="0 0 56 56" fill="none" xmlns="http://www.w3.org/2000/svg">
<path d="M55.0133 13.7533L49.6894 11.0914V0.104703H37.2671V4.88021L27.5066 0L0 13.7533V21.9485L1.77462 21.0612V48.9068H12.8429L16.2138 52.2777L18.5013 49.9902C19.937 50.8394 21.4685 51.4765 23.0701 51.89V55.118H31.9432V51.8891C33.5457 51.4756 35.0763 50.8385 36.512 49.9893L38.7995 52.2768L42.1704 48.9068H53.2387V21.0612L55.0133 21.9485V13.7533ZM39.0417 5.76752V5.42857H47.9148V10.2041L39.0417 5.76752ZM47.9148 1.87933V3.65395H39.0417V1.87933H47.9148ZM36.764 47.7302L36.1615 48.1198C34.5288 49.1757 32.748 49.9157 30.8696 50.3194L30.1686 50.4703V53.3434H24.8447V50.4703L24.1437 50.3203C22.2653 49.9166 20.4845 49.1766 18.8518 48.1207L18.2493 47.7311L16.213 49.7693L12.4481 46.0044L14.4862 43.968L14.0967 43.3656C13.0408 41.7329 12.3008 39.9521 11.8971 38.0736L11.7462 37.3718H8.87311V32.0479H11.7462L11.8962 31.3469C12.2999 29.4685 13.0399 27.6877 14.0958 26.055L14.4854 25.4525L12.4472 23.4161L16.2121 19.6513L18.2484 21.6894L18.8509 21.2999C20.4836 20.244 22.2644 19.504 24.1429 19.1003L24.8447 18.9494V16.0763H30.1686V18.9494L30.8696 19.0994C32.748 19.5031 34.5288 20.2431 36.1615 21.299L36.764 21.6885L38.8003 19.6504L42.5652 23.4153L40.5271 25.4516L40.9166 26.0541C41.9725 27.6868 42.7125 29.4676 43.1162 31.346L43.2671 32.0479H46.1402V37.3718H43.2671L43.1171 38.0728C42.7134 39.9512 41.9734 41.732 40.9175 43.3647L40.5279 43.9672L42.5661 46.0035L38.8012 49.7684L36.764 47.7302ZM53.2387 19.0772L50.0861 17.5013L49.2919 19.0887L51.4641 20.1739V47.1322H43.945L45.0736 46.0035L42.7862 43.716C43.6353 42.2804 44.2724 40.7489 44.6859 39.1473H47.9148V30.2733H44.6859C44.2724 28.6708 43.6353 27.1402 42.7862 25.7045L45.0736 23.417L38.7995 17.1429L36.512 19.4303C35.0763 18.5812 33.5448 17.9441 31.9432 17.5306V14.3017H23.0701V17.5306C21.4676 17.9441 19.937 18.5812 18.5013 19.4303L16.2138 17.1429L9.93966 23.417L12.2271 25.7045C11.378 27.1402 10.7409 28.6717 10.3274 30.2733H7.09849V39.1464H10.3274C10.7409 40.7489 11.378 42.2795 12.2271 43.7152L9.93966 46.0027L11.0683 47.1322H3.54925V20.1739L27.5066 8.19521L47.5146 18.1988L48.3088 16.6114L27.5066 6.21118L1.77462 19.0772V14.85L27.5066 1.98403L53.2387 14.85V19.0772Z" fill="#C8A781"/>
<path d="M27.5066 24.9495C22.1251 24.9495 17.7462 29.3283 17.7462 34.7099C17.7462 40.0914 22.1251 44.4703 27.5066 44.4703C32.8882 44.4703 37.2671 40.0914 37.2671 34.7099C37.2671 29.3283 32.8882 24.9495 27.5066 24.9495ZM27.5066 42.6957C23.1029 42.6957 19.5208 39.1136 19.5208 34.7099C19.5208 30.3062 23.1029 26.7241 27.5066 26.7241C31.9104 26.7241 35.4924 30.3062 35.4924 34.7099C35.4924 39.1136 31.9104 42.6957 27.5066 42.6957Z" fill="#C8A781"/>
<path d="M27.5066 22.2876V20.5129C21.1393 20.5129 15.511 24.7942 13.8198 30.9247L15.5306 31.3958C17.0106 26.0338 21.9352 22.2876 27.5066 22.2876Z" fill="#C8A781"/>
<path d="M13.3097 34.7099H15.0843C15.0843 34.1553 15.1207 33.5981 15.1934 33.0524L13.4348 32.8181C13.3514 33.441 13.3097 34.0772 13.3097 34.7099Z" fill="#C8A781"/>
</svg>
