<svg width="60" height="60" viewBox="0 0 60 60" fill="none" xmlns="http://www.w3.org/2000/svg">
<path d="M30 0C24.0666 0 18.2664 1.75947 13.3329 5.05591C8.39943 8.35235 4.55426 13.0377 2.28363 18.5195C0.0129988 24.0013 -0.581102 30.0333 0.576455 35.8527C1.73401 41.6721 4.59123 47.0176 8.78681 51.2132C12.9824 55.4088 18.3279 58.266 24.1473 59.4236C29.9667 60.5811 35.9987 59.987 41.4805 57.7164C46.9623 55.4458 51.6477 51.6006 54.9441 46.6671C58.2405 41.7336 60 35.9334 60 30C59.991 22.0463 56.8274 14.4209 51.2033 8.79674C45.5791 3.17259 37.9537 0.00899894 30 0ZM30 58C24.4621 58 19.0486 56.3578 14.444 53.2812C9.83947 50.2045 6.25064 45.8315 4.13139 40.7151C2.01213 35.5988 1.45764 29.9689 2.53803 24.5375C3.61841 19.106 6.28515 14.1169 10.201 10.201C14.1169 6.28514 19.106 3.6184 24.5375 2.53801C29.969 1.45763 35.5988 2.01212 40.7152 4.13137C45.8315 6.25063 50.2045 9.83946 53.2812 14.444C56.3578 19.0486 58 24.4621 58 30C57.9915 37.4235 55.0388 44.5405 49.7896 49.7896C44.5405 55.0388 37.4235 57.9915 30 58Z" fill="#C8A781"/>
<path d="M30 4C24.8577 4 19.8309 5.52487 15.5552 8.38179C11.2795 11.2387 7.94702 15.2994 5.97914 20.0502C4.01127 24.8011 3.49638 30.0288 4.49959 35.0723C5.50281 40.1159 7.97907 44.7486 11.6152 48.3848C15.2514 52.0209 19.8842 54.4972 24.9277 55.5004C29.9712 56.5036 35.1989 55.9887 39.9498 54.0209C44.7007 52.053 48.7613 48.7205 51.6182 44.4448C54.4751 40.1691 56 35.1423 56 30C55.9923 23.1067 53.2506 16.498 48.3763 11.6237C43.502 6.74942 36.8933 4.00768 30 4ZM53.975 31C53.7425 36.6689 51.5016 42.0703 47.653 46.239L43.707 42.293L42.293 43.707L46.239 47.653C42.0703 51.5016 36.6689 53.7424 31 53.975V48H29V53.975C23.3312 53.7424 17.9297 51.5016 13.761 47.653L17.707 43.707L16.293 42.293L12.347 46.239C8.49839 42.0703 6.25756 36.6689 6.02501 31H12V29H6.02501C6.25756 23.3311 8.49839 17.9297 12.347 13.761L16.293 17.707L17.707 16.293L13.761 12.347C17.9297 8.49837 23.3312 6.25755 29 6.025V12H31V6.025C36.6689 6.25755 42.0703 8.49837 46.239 12.347L42.293 16.293L43.707 17.707L47.653 13.761C51.5016 17.9297 53.7425 23.3311 53.975 29H48V31H53.975Z" fill="#C8A781"/>
<path d="M8.01001 26.858L9.99001 27.142C10.389 23.687 11.7006 20.4005 13.79 17.62L12.22 16.38C9.91075 19.4366 8.45757 23.0534 8.01001 26.858Z" fill="#C8A781"/>
<path d="M8.01001 33.142C8.45611 36.9462 9.90754 40.5629 12.215 43.62L13.785 42.38C11.6974 39.5991 10.3876 36.3126 9.99001 32.858L8.01001 33.142Z" fill="#C8A781"/>
<path d="M16.412 47.809C19.5283 49.9836 23.102 51.414 26.858 51.99L27.142 50.01C23.7071 49.4848 20.4385 48.1783 17.588 46.191L16.412 47.809Z" fill="#C8A781"/>
<path d="M33.142 51.99C36.9459 51.544 40.5623 50.0925 43.619 47.785L42.381 46.215C39.5996 48.3024 36.3128 49.6122 32.858 50.01L33.142 51.99Z" fill="#C8A781"/>
<path d="M47.785 43.62C50.0925 40.5629 51.5439 36.9462 51.99 33.142L50.01 32.858C49.6121 36.3125 48.3023 39.5989 46.215 42.38L47.785 43.62Z" fill="#C8A781"/>
<path d="M52 27.906C51.5958 23.7831 50.1559 19.8292 47.814 16.412L46.196 17.588C48.3314 20.7131 49.6433 24.3268 50.01 28.094L52 27.906Z" fill="#C8A781"/>
<path d="M43.619 12.215C40.6474 9.72787 36.961 8.25156 33.094 8L32.906 10C36.3867 10.2244 39.7054 11.5516 42.381 13.789L43.619 12.215Z" fill="#C8A781"/>
<path d="M26.858 8.01001C23.102 8.5861 19.5283 10.0165 16.412 12.191L17.588 13.809C20.4385 11.8218 23.7071 10.5153 27.142 9.99001L26.858 8.01001Z" fill="#C8A781"/>
<path d="M30 28.586L19.707 18.293L18.293 19.707L28.798 30.212L22.094 44.577L23.906 45.423L30.832 30.582L42.707 18.707L41.293 17.293L30 28.586Z" fill="#C8A781"/>
<path d="M31 19H29V21H31V19Z" fill="#C8A781"/>
<path d="M22 29H20V31H22V29Z" fill="#C8A781"/>
<path d="M31 39H29V41H31V39Z" fill="#C8A781"/>
<path d="M40 29H38V31H40V29Z" fill="#C8A781"/>
</svg>
