<svg width="42" height="45" viewBox="0 0 42 45" fill="none" xmlns="http://www.w3.org/2000/svg">
<path d="M20.8696 41.0869C11.52 41.0869 3.91309 33.4806 3.91309 24.1304C3.91309 14.7808 11.52 7.17383 20.8696 7.17383C30.2198 7.17383 37.8261 14.7808 37.8261 24.1304C37.8261 33.4806 30.2198 41.0869 20.8696 41.0869ZM20.8696 8.47818C12.2394 8.47818 5.21743 15.5001 5.21743 24.1304C5.21743 32.7606 12.2394 39.7825 20.8696 39.7825C29.4998 39.7825 36.5218 32.7606 36.5218 24.1304C36.5218 15.5001 29.4998 8.47818 20.8696 8.47818Z" fill="#BB976E"/>
<path d="M36.0698 9.85239L36.5491 9.3737L37.0102 9.83544C37.1328 9.95805 37.2978 10.0265 37.4713 10.0265C37.6448 10.0265 37.8104 9.95805 37.9324 9.83544L39.3157 8.45217C39.5707 8.19717 39.5707 7.785 39.3157 7.53L37.4713 5.685C37.3487 5.56239 37.1837 5.49391 37.0102 5.49391C36.8367 5.49391 36.6711 5.56239 36.5491 5.685L35.1659 7.06826C34.9109 7.32326 34.9109 7.73543 35.1659 7.99043L35.627 8.45152L35.1476 8.93087C31.8587 5.83891 27.5713 3.79891 22.8261 3.35544V1.30435H23.4783C23.8389 1.30435 24.1304 1.01217 24.1304 0.652174C24.1304 0.292174 23.8389 0 23.4783 0H22.1739H19.5652H18.2609C17.9009 0 17.6087 0.292174 17.6087 0.652174C17.6087 1.01217 17.9009 1.30435 18.2609 1.30435H18.913V3.35544C14.1672 3.79891 9.88043 5.83891 6.59152 8.93022L6.11283 8.45152L6.57391 7.98978C6.82891 7.73478 6.82891 7.32261 6.57391 7.06761L5.19065 5.68435C4.94609 5.43978 4.51304 5.43978 4.26848 5.68435L2.42348 7.52935C2.30087 7.65196 2.23239 7.81761 2.23239 7.99043C2.23239 8.16326 2.30087 8.32957 2.42348 8.45152L3.80739 9.83478C3.93 9.95739 4.09565 10.0259 4.26848 10.0259C4.4413 10.0259 4.60761 9.95739 4.72956 9.83478L5.19065 9.37304L5.66935 9.85174C2.15804 13.588 0 18.6111 0 24.1304C0 35.638 9.36196 45 20.8696 45C32.3772 45 41.7391 35.638 41.7391 24.1304C41.7391 18.6111 39.5811 13.588 36.0698 9.85239ZM37.0102 7.06761L37.9324 7.99043L37.4713 8.45152L36.5491 7.5287L37.0102 7.06761ZM4.26783 8.45152L3.80609 7.99043L4.72891 7.06761L5.19 7.5287L4.26783 8.45152ZM20.2174 3.26087V1.30435H21.5217V3.26087H20.2174ZM20.8696 43.6957C10.0813 43.6957 1.30435 34.9187 1.30435 24.1304C1.30435 13.3422 10.0813 4.56522 20.8696 4.56522C31.6578 4.56522 40.4348 13.3422 40.4348 24.1304C40.4348 34.9187 31.6578 43.6957 20.8696 43.6957Z" fill="#BB976E"/>
<path d="M21.5216 21.6143V15.6522C21.5216 15.2922 21.2294 15 20.8694 15C20.5094 15 20.2173 15.2922 20.2173 15.6522V21.6143C19.0955 21.9059 18.2607 22.9187 18.2607 24.1304C18.2607 25.5691 19.4307 26.7391 20.8694 26.7391C22.3081 26.7391 23.4781 25.5691 23.4781 24.1304C23.4781 22.9187 22.644 21.9059 21.5216 21.6143ZM20.8694 25.4348C20.1501 25.4348 19.5651 24.8498 19.5651 24.1304C19.5651 23.4111 20.1501 22.8261 20.8694 22.8261C21.5888 22.8261 22.1738 23.4111 22.1738 24.1304C22.1738 24.8498 21.5888 25.4348 20.8694 25.4348Z" fill="#BB976E"/>
<path d="M20.8695 11.7392C20.5095 11.7392 20.2173 11.4471 20.2173 11.0871V10.4349C20.2173 10.0749 20.5095 9.78271 20.8695 9.78271C21.2295 9.78271 21.5216 10.0749 21.5216 10.4349V11.0871C21.5216 11.4471 21.2295 11.7392 20.8695 11.7392Z" fill="#BB976E"/>
<path d="M11.6466 15.5588C11.4797 15.5588 11.3127 15.4949 11.1855 15.3677L10.7245 14.9066C10.4695 14.6516 10.4695 14.2395 10.7245 13.9845C10.9795 13.7295 11.3916 13.7295 11.6466 13.9845L12.1077 14.4456C12.3627 14.7006 12.3627 15.1127 12.1077 15.3677C11.9805 15.4955 11.8136 15.5588 11.6466 15.5588Z" fill="#BB976E"/>
<path d="M7.82632 24.7826H7.17415C6.81415 24.7826 6.52197 24.4911 6.52197 24.1304C6.52197 23.7698 6.81415 23.4783 7.17415 23.4783H7.82632C8.18632 23.4783 8.47849 23.7698 8.47849 24.1304C8.47849 24.4911 8.18632 24.7826 7.82632 24.7826Z" fill="#BB976E"/>
<path d="M11.1855 34.4675C11.0186 34.4675 10.8516 34.4036 10.7245 34.2764C10.4695 34.0214 10.4695 33.6092 10.7245 33.3542L11.1855 32.8932C11.4405 32.6382 11.8527 32.6382 12.1077 32.8932C12.3627 33.1482 12.3627 33.5603 12.1077 33.8153L11.6466 34.2764C11.5195 34.4036 11.3525 34.4675 11.1855 34.4675Z" fill="#BB976E"/>
<path d="M20.8695 38.4783C20.5095 38.4783 20.2173 38.1867 20.2173 37.8261V37.1739C20.2173 36.8133 20.5095 36.5217 20.8695 36.5217C21.2295 36.5217 21.5216 36.8133 21.5216 37.1739V37.8261C21.5216 38.1867 21.2295 38.4783 20.8695 38.4783Z" fill="#BB976E"/>
<path d="M30.5543 34.4675C30.3874 34.4675 30.2204 34.4036 30.0933 34.2764L29.6322 33.8153C29.3772 33.5603 29.3772 33.1482 29.6322 32.8932C29.8872 32.6382 30.2993 32.6382 30.5543 32.8932L31.0154 33.3542C31.2704 33.6092 31.2704 34.0214 31.0154 34.2764C30.8876 34.4036 30.7206 34.4675 30.5543 34.4675Z" fill="#BB976E"/>
<path d="M34.5651 24.7826H33.9129C33.5523 24.7826 33.2607 24.4911 33.2607 24.1304C33.2607 23.7698 33.5523 23.4783 33.9129 23.4783H34.5651C34.9257 23.4783 35.2173 23.7698 35.2173 24.1304C35.2173 24.4911 34.9257 24.7826 34.5651 24.7826Z" fill="#BB976E"/>
<path d="M30.0933 15.5588C29.9263 15.5588 29.7593 15.4949 29.6322 15.3677C29.3772 15.1127 29.3772 14.7006 29.6322 14.4456L30.0933 13.9845C30.3483 13.7295 30.7604 13.7295 31.0154 13.9845C31.2704 14.2395 31.2704 14.6516 31.0154 14.9066L30.5543 15.3677C30.4265 15.4955 30.2596 15.5588 30.0933 15.5588Z" fill="#BB976E"/>
</svg>
