<svg width="52" height="45" viewBox="0 0 52 45" fill="none" xmlns="http://www.w3.org/2000/svg">
<path d="M26 0C24.0035 0 22.3721 1.64076 22.3721 3.64865C22.3721 5.45168 23.6813 6.95155 25.3953 7.24029V15.4307L14.2471 21.0367C14.1445 21.087 14.0581 21.1654 13.9979 21.2629C13.9377 21.3604 13.9062 21.4731 13.907 21.5878V35.1753L6.68895 39.413C6.04442 38.3914 4.91426 37.7027 3.62791 37.7027C1.63143 37.7027 0 39.3435 0 41.3514C0 43.3592 1.63143 45 3.62791 45C5.62438 45 7.25581 43.3592 7.25581 41.3514C7.25581 41.0792 7.21815 40.8087 7.16134 40.5532L14.4738 36.2584L25.6788 43.0807C25.775 43.1414 25.8864 43.1736 26 43.1736C26.1136 43.1736 26.225 43.1414 26.3212 43.0807L37.5262 36.2584L44.8387 40.5532C44.7819 40.8087 44.7442 41.0792 44.7442 41.3514C44.7442 43.3592 46.3756 45 48.3721 45C50.3686 45 52 43.3592 52 41.3514C52 39.3435 50.3686 37.7027 48.3721 37.7027C47.0857 37.7027 45.9556 38.3914 45.311 39.413L38.093 35.1753V21.5878C38.0938 21.4731 38.0623 21.3604 38.0021 21.2629C37.9419 21.1654 37.8555 21.087 37.7529 21.0367L29.8924 17.084C29.8205 17.0491 29.7424 17.0288 29.6626 17.0242C29.5828 17.0196 29.5029 17.0309 29.4275 17.0573C29.352 17.0838 29.2825 17.125 29.2229 17.1784C29.1633 17.2319 29.1147 17.2967 29.0799 17.3691C29.0452 17.4415 29.025 17.52 29.0204 17.6002C29.0159 17.6805 29.0271 17.7608 29.0534 17.8367C29.0797 17.9126 29.1206 17.9825 29.1738 18.0425C29.227 18.1024 29.2914 18.1513 29.3634 18.1862L36.1468 21.6068L26 27.2698L15.8532 21.6068L26.2645 16.3619C26.3672 16.3117 26.4536 16.2333 26.5137 16.1358C26.5739 16.0382 26.6054 15.9256 26.6047 15.8108V7.24029C28.3187 6.95155 29.6279 5.45168 29.6279 3.64865C29.6279 1.64076 27.9965 0 26 0ZM26 1.21622C27.3429 1.21622 28.4186 2.29805 28.4186 3.64865C28.4186 4.99925 27.3429 6.08108 26 6.08108C24.6571 6.08108 23.5814 4.99925 23.5814 3.64865C23.5814 2.29805 24.6571 1.21622 26 1.21622ZM15.1163 22.595L25.3953 28.334V41.5034L15.1163 35.2323V22.595ZM36.8837 22.595V35.2323L26.6047 41.5034V28.334L36.8837 22.595ZM3.62791 38.9189C4.97083 38.9189 6.04651 40.0008 6.04651 41.3514C6.04651 42.702 4.97083 43.7838 3.62791 43.7838C2.28499 43.7838 1.2093 42.702 1.2093 41.3514C1.2093 40.0008 2.28499 38.9189 3.62791 38.9189ZM48.3721 38.9189C49.715 38.9189 50.7907 40.0008 50.7907 41.3514C50.7907 42.702 49.715 43.7838 48.3721 43.7838C47.0292 43.7838 45.9535 42.702 45.9535 41.3514C45.9535 40.0008 47.0292 38.9189 48.3721 38.9189Z" fill="#C8A781"/>
</svg>
