<svg width="53" height="45" viewBox="0 0 53 45" fill="none" xmlns="http://www.w3.org/2000/svg">
<path d="M9.72974 0.608108V15.1269L17.027 19.0416V11.5542C17.027 11.1427 17.531 10.8231 17.9012 11.0031L34.0541 19.0796V11.5542C34.0541 11.1427 34.5581 10.8231 34.9282 11.0031L51.9553 19.5167C52.1603 19.6164 52.2989 19.8397 52.2973 20.0678V44.392C52.2973 44.7104 52.0076 45 51.6892 45.0001H0.608108C0.289703 45 6.08108e-05 44.7104 0 44.392V0.608108C6.08108e-05 0.289715 0.289703 3.04054e-05 0.608108 0H9.12163C9.50303 0.00121622 9.7014 0.369341 9.72974 0.608108ZM8.51352 1.21622H1.21622V43.7838H51.0811V20.4289L35.2703 12.5234V20.0678C35.2606 20.473 34.7606 20.7772 34.3961 20.5999L18.2433 12.5234V20.0678C18.2372 20.4833 17.7172 20.7946 17.3501 20.5999L8.83655 16.039C8.64414 15.9369 8.51534 15.7248 8.51352 15.507V1.21622ZM45 27.3649C45.3184 27.3649 45.6081 27.6546 45.6081 27.973V35.2703C45.6081 35.5887 45.3184 35.8784 45 35.8784H36.4865C36.1681 35.8784 35.8785 35.5887 35.8784 35.2703V27.973C35.8785 27.6546 36.1681 27.3649 36.4865 27.3649H45ZM30.4054 27.3649C30.7238 27.3649 31.0135 27.6546 31.0135 27.973V35.2703C31.0135 35.5887 30.7238 35.8784 30.4054 35.8784H21.8919C21.5735 35.8784 21.2839 35.5887 21.2838 35.2703V27.973C21.2839 27.6546 21.5735 27.3649 21.8919 27.3649H30.4054ZM15.8108 27.3649C16.1292 27.3649 16.4189 27.6546 16.4189 27.973V35.2703C16.4189 35.5887 16.1292 35.8784 15.8108 35.8784H7.2973C6.9789 35.8784 6.68925 35.5887 6.68919 35.2703V27.973C6.68925 27.6546 6.9789 27.3649 7.2973 27.3649H15.8108ZM44.3919 28.5811H37.0946V34.6622H44.3919V28.5811ZM29.7973 28.5811H22.5V34.6622H29.7973V28.5811ZM15.2027 28.5811H7.90541V34.6622H15.2027V28.5811Z" fill="#C8A781"/>
</svg>
