<svg width="45" height="46" viewBox="0 0 45 46" fill="none" xmlns="http://www.w3.org/2000/svg">
<path d="M0 44.9123C0 44.605 0.116839 43.6975 0.211379 43.2705C0.662592 41.2328 1.68577 39.3987 3.17236 37.9628C4.78047 36.4095 6.68557 35.4673 8.9379 35.1113C9.65175 34.9985 11.2941 34.9985 12.0079 35.1113C14.2602 35.4673 16.1653 36.4095 17.7734 37.9628C19.26 39.3987 20.2832 41.2328 20.7344 43.2705C20.829 43.6975 20.9458 44.605 20.9458 44.9123V45.1605H20.2664H19.587L19.5565 44.8531C19.4984 44.2672 19.3942 43.6328 19.2854 43.2022C18.5271 40.2016 16.2891 37.7802 13.3735 36.806C12.3316 36.4579 11.5346 36.3274 10.4501 36.3274C9.36569 36.3274 8.56868 36.4579 7.52679 36.806C4.61121 37.7802 2.37318 40.2016 1.61488 43.2022C1.50607 43.6328 1.40188 44.2672 1.34375 44.8531L1.31325 45.1605H0.656624H0V44.9123ZM23.3136 44.9123C23.3136 44.605 23.4304 43.6975 23.525 43.2705C23.9762 41.2328 24.9994 39.3987 26.4859 37.9628C28.0941 36.4095 29.9992 35.4673 32.2515 35.1113C32.9653 34.9985 34.6076 34.9985 35.3215 35.1113C37.5738 35.4673 39.4789 36.4095 41.087 37.9628C42.5736 39.3987 43.5968 41.2328 44.048 43.2705C44.1426 43.6975 44.2594 44.605 44.2594 44.9123V45.1605H43.58H42.9006L42.8701 44.8531C42.812 44.2672 42.7078 43.6328 42.599 43.2022C41.8407 40.2016 39.6026 37.7802 36.6871 36.806C35.6452 36.4579 34.8482 36.3274 33.7637 36.3274C32.6793 36.3274 31.8823 36.4579 30.8404 36.806C27.9248 37.7802 25.6868 40.2016 24.9285 43.2022C24.8197 43.6328 24.7155 44.2672 24.6573 44.8531L24.6268 45.1605H23.9702H23.3136V44.9123ZM9.81265 33.4507C8.74679 33.3176 7.65723 32.7784 6.87692 31.998C4.89285 30.0137 4.89285 26.7894 6.87692 24.8051C8.861 22.8207 12.0848 22.8207 14.0689 24.8051C15.372 26.1084 15.8732 28.0422 15.3635 29.801C14.6612 32.2248 12.3202 33.764 9.81265 33.4507ZM11.4747 32.0462C12.5076 31.7509 13.3396 31.0639 13.82 30.1093C14.1141 29.5249 14.2144 29.0962 14.2144 28.4243C14.2144 27.7524 14.1141 27.3236 13.82 26.7393C13.3355 25.7766 12.5087 25.0979 11.4519 24.7954C11.1531 24.7098 10.9772 24.6911 10.4729 24.6911C9.77349 24.6911 9.37378 24.7791 8.8109 25.0571C7.84613 25.5335 7.09762 26.4595 6.82544 27.5135C6.69455 28.0203 6.69481 28.8301 6.82603 29.3351C7.19229 30.7447 8.28132 31.7862 9.72722 32.1097C10.1654 32.2078 11.0178 32.1768 11.4747 32.0462H11.4747ZM33.1262 33.4507C32.0604 33.3176 30.9708 32.7784 30.1905 31.998C28.2064 30.0137 28.2064 26.7894 30.1905 24.8051C32.1746 22.8207 35.3984 22.8207 37.3825 24.8051C39.3665 26.7894 39.3665 30.0137 37.3825 31.998C36.2673 33.1134 34.702 33.6476 33.1262 33.4507ZM34.7882 32.0462C35.8212 31.7509 36.6532 31.0639 37.1336 30.1093C37.4277 29.5249 37.528 29.0962 37.528 28.4243C37.528 27.7524 37.4277 27.3236 37.1336 26.7393C36.6491 25.7766 35.8223 25.0979 34.7655 24.7954C34.4667 24.7098 34.2907 24.6911 33.7865 24.6911C33.0871 24.6911 32.6874 24.7791 32.1245 25.0571C31.1597 25.5335 30.4112 26.4595 30.139 27.5135C30.0081 28.0203 30.0084 28.8301 30.1396 29.3351C30.5059 30.7447 31.5949 31.7862 33.0408 32.1097C33.4789 32.2078 34.3314 32.1768 34.7882 32.0462H34.7882ZM0 21.5955C0 21.2882 0.116839 20.3807 0.211379 19.9537C0.662592 17.916 1.68577 16.0819 3.17236 14.646C4.78047 13.0927 6.68557 12.1505 8.9379 11.7945C9.65175 11.6817 11.2941 11.6817 12.0079 11.7945C14.2602 12.1505 16.1653 13.0927 17.7734 14.646C19.26 16.0819 20.2832 17.916 20.7344 19.9537C20.829 20.3807 20.9458 21.2882 20.9458 21.5955V21.8437H20.2664H19.587L19.5565 21.5363C19.4984 20.9504 19.3942 20.316 19.2854 19.8854C18.5271 16.8848 16.2891 14.4634 13.3735 13.4892C12.3316 13.1411 11.5346 13.0106 10.4501 13.0106C9.36569 13.0106 8.56868 13.1411 7.52679 13.4892C4.61121 14.4634 2.37318 16.8848 1.61488 19.8854C1.50607 20.316 1.40188 20.9504 1.34375 21.5363L1.31325 21.8437H0.656624H0V21.5955ZM23.3136 21.5955C23.3136 21.2882 23.4304 20.3807 23.525 19.9537C23.9762 17.916 24.9994 16.0819 26.4859 14.646C28.0941 13.0927 29.9992 12.1505 32.2515 11.7945C32.9653 11.6817 34.6076 11.6817 35.3215 11.7945C37.5738 12.1505 39.4789 13.0927 41.087 14.646C42.5736 16.0819 43.5968 17.916 44.048 19.9537C44.1426 20.3807 44.2594 21.2882 44.2594 21.5955V21.8437H43.58H42.9006L42.8701 21.5363C42.812 20.9504 42.7078 20.316 42.599 19.8854C41.8407 16.8848 39.6026 14.4634 36.6871 13.4892C35.6452 13.1411 34.8482 13.0106 33.7637 13.0106C32.6793 13.0106 31.8823 13.1411 30.8404 13.4892C27.9248 14.4634 25.6868 16.8848 24.9285 19.8854C24.8197 20.316 24.7155 20.9504 24.6573 21.5363L24.6268 21.8437H23.9702H23.3136V21.5955ZM9.81265 10.1339C8.74679 10.0008 7.65723 9.46162 6.87692 8.68121C4.89285 6.69686 4.89285 3.47261 6.87692 1.48826C8.861 -0.496087 12.0848 -0.496087 14.0689 1.48826C15.372 2.7916 15.8732 4.72537 15.3635 6.48425C14.6612 8.90797 12.3202 10.4472 9.81265 10.1339ZM11.4747 8.7294C12.5076 8.43415 13.3396 7.74711 13.82 6.79251C14.1141 6.20816 14.2144 5.77945 14.2144 5.1075C14.2144 4.43556 14.1141 4.00685 13.82 3.4225C13.3355 2.45984 12.5087 1.78113 11.4519 1.47858C11.1531 1.39303 10.9772 1.37429 10.4729 1.37429C9.77349 1.37429 9.37378 1.46231 8.8109 1.74026C7.84613 2.21668 7.09762 3.14275 6.82544 4.19669C6.69455 4.70356 6.69481 5.51332 6.82603 6.01832C7.19229 7.42788 8.28132 8.4694 9.72722 8.79293C10.1654 8.89097 11.0178 8.85997 11.4747 8.7294H11.4747ZM33.1262 10.1339C32.0604 10.0008 30.9708 9.46162 30.1905 8.68121C28.2064 6.69686 28.2064 3.47261 30.1905 1.48826C32.1746 -0.496087 35.3984 -0.496087 37.3825 1.48826C38.6856 2.7916 39.1867 4.72537 38.6771 6.48425C37.9748 8.90797 35.6338 10.4472 33.1262 10.1339ZM34.7882 8.7294C35.8212 8.43415 36.6532 7.74711 37.1336 6.79251C37.4277 6.20816 37.528 5.77945 37.528 5.1075C37.528 4.43556 37.4277 4.00685 37.1336 3.4225C36.6491 2.45984 35.8223 1.78113 34.7655 1.47858C34.4667 1.39303 34.2907 1.37429 33.7865 1.37429C33.0871 1.37429 32.6874 1.46231 32.1245 1.74026C31.1597 2.21668 30.4112 3.14275 30.139 4.19669C30.0081 4.70356 30.0084 5.51332 30.1396 6.01832C30.5059 7.42788 31.5949 8.4694 33.0408 8.79293C33.4789 8.89097 34.3314 8.85997 34.7882 8.7294H34.7882Z" fill="#C8A781"/>
</svg>
